<svg xmlns="http://www.w3.org/2000/svg" enable-background="new 0 0 66 66" viewBox="0 0 66 66" width="66" height="66"><path fill="#155647" d="M24.28,48.32C13.19,50.2,6.22,46.21,7.19,35.46c-5.28-3.08-5.5-10.1-1.27-14.53     C4.42,12.45,10.06,7.55,17.95,9.49c2.58-5.88,9.01-7.65,14.54-3.99c5.07-5.1,13.09-2.08,14.36,5.46     c8.04-2.11,14.27,2.18,12.29,12.66C64.58,27,64.41,36.04,58,39.35c0.25,9.69-1.97,17.43-9.26,21.22     c0.45-9.88-3.21-13.4-9.26-13.21C36.18,52.23,28.88,52.23,24.28,48.32z"/><path fill="#fff" d="M21.1,48.71c-9.22,0.63-14.79-3.57-13.91-13.25c-5.28-3.08-5.5-10.1-1.27-14.54     C4.52,13.03,9.32,8.24,16.36,9.18c-4.82,0.7-7.87,4.63-7.26,10.53c0.08,0.75-0.14,1.5-0.6,2.1c-3.11,4.04-2.97,9.65,0.82,12.79     c0.71,0.59,1.15,1.45,1.13,2.36C10.29,44.42,14.35,48.21,21.1,48.71z"/><path fill="#010101" d="M48.73,61.04c-0.09,0-0.18-0.02-0.25-0.07c-0.14-0.09-0.22-0.25-0.22-0.42c0.23-5.08-0.65-8.67-2.62-10.67     c-1.4-1.42-3.34-2.09-5.93-2.06c-1.45,2.02-3.68,3.32-6.31,3.69c-3.22,0.44-6.66-0.56-9.26-2.68     c-6.33,1.03-11.24,0.13-14.21-2.62c-2.51-2.32-3.6-5.85-3.23-10.49c-2.27-1.42-3.73-3.64-4.1-6.29     c-0.43-3.02,0.63-6.24,2.83-8.64c-0.67-4.09,0.26-7.56,2.63-9.78c2.3-2.16,5.8-2.89,9.63-2.05c1.3-2.73,3.47-4.65,6.15-5.44     c2.8-0.82,5.84-0.33,8.6,1.4c2.35-2.19,5.45-2.94,8.39-2.01c3.21,1.02,5.62,3.87,6.4,7.49c4.07-0.95,7.57-0.28,9.91,1.89     c1.77,1.65,3.63,4.92,2.53,11.12c2.5,1.69,3.96,4.73,3.83,8c-0.14,3.51-2.01,6.56-5.01,8.23c0.23,10.93-2.89,17.91-9.52,21.36     C48.88,61.02,48.81,61.04,48.73,61.04z M39.9,46.88c2.73,0,4.89,0.79,6.42,2.34c2.08,2.11,3.03,5.56,2.92,10.54     c5.93-3.45,8.57-9.97,8.3-20.4c0-0.18,0.09-0.35,0.25-0.43c2.86-1.47,4.64-4.3,4.77-7.57c0.12-3.05-1.28-5.86-3.66-7.34     c-0.16-0.1-0.25-0.3-0.21-0.49c0.9-4.74,0.14-8.39-2.19-10.57c-2.18-2.04-5.56-2.59-9.52-1.55c-0.13,0.03-0.26,0.01-0.37-0.06     c-0.11-0.07-0.19-0.19-0.21-0.32c-0.59-3.51-2.83-6.29-5.85-7.25c-2.75-0.87-5.56-0.13-7.71,2.04c-0.16,0.16-0.41,0.18-0.59,0.06     c-2.61-1.73-5.5-2.26-8.14-1.48c-2.52,0.74-4.55,2.61-5.71,5.27c-0.09,0.21-0.32,0.32-0.54,0.27c-3.73-0.92-6.97-0.3-9.14,1.73     c-2.18,2.04-3,5.29-2.31,9.16c0.03,0.15-0.02,0.3-0.12,0.41c-2.11,2.22-3.14,5.22-2.74,8.04c0.35,2.46,1.74,4.5,3.9,5.77     c0.16,0.09,0.25,0.27,0.23,0.45c-0.41,4.48,0.57,7.85,2.91,10.01c2.78,2.58,7.5,3.39,13.63,2.35c0.14-0.02,0.28,0.02,0.38,0.1     c2.42,2.05,5.67,3.03,8.7,2.61c2.45-0.34,4.51-1.57,5.8-3.48c0.08-0.13,0.22-0.2,0.37-0.21C39.61,46.88,39.75,46.88,39.9,46.88z"/><path fill="#010101" d="M11.35 37.36c-.03 0-.06 0-.08-.01C9.29 37 7.87 36.5 6.93 35.84c-.21-.15-.26-.44-.12-.65.15-.21.44-.26.65-.12.82.58 2.16 1.03 3.97 1.36.26.05.42.29.38.55C11.77 37.2 11.57 37.36 11.35 37.36zM5.93 21.39c-.11 0-.23-.04-.32-.12-.19-.18-.2-.47-.03-.66 1.64-1.79 3.4-2.66 5.88-2.89.25-.02.49.17.51.42.02.26-.17.49-.42.51-2.23.21-3.8.98-5.28 2.59C6.18 21.34 6.05 21.39 5.93 21.39zM21.4 12.92c-.16 0-.31-.08-.4-.22-.91-1.45-2.09-2.48-3.16-2.76-.25-.06-.4-.32-.34-.57.06-.25.32-.4.57-.34 1.3.33 2.69 1.51 3.73 3.17.14.22.07.51-.15.65C21.57 12.9 21.48 12.92 21.4 12.92zM30.67 8.62c-.06 0-.12-.01-.17-.03-.24-.1-.36-.37-.26-.61.51-1.27 1.02-2.19 2-2.86.21-.15.51-.09.65.12.15.21.09.51-.12.65-.78.54-1.2 1.3-1.65 2.44C31.03 8.51 30.86 8.62 30.67 8.62zM55.01 41.27c-.2 0-.38-.13-.45-.32-.08-.25.05-.51.3-.59 1.92-.62 2.83-1.36 2.84-1.37.2-.16.49-.14.66.06.17.2.14.49-.06.66-.04.03-1.03.86-3.15 1.54C55.1 41.26 55.05 41.27 55.01 41.27zM54.69 33.19c-.22 0-.42-.16-.46-.39-.57-3.22-.14-6.63 1.23-9.61.11-.24.39-.34.62-.23.24.11.34.39.23.62-1.29 2.8-1.7 6.02-1.16 9.05.05.26-.12.5-.38.54C54.75 33.18 54.72 33.19 54.69 33.19zM14.43 39c-.03 0-.06 0-.1-.01-.25-.05-.42-.3-.36-.56.44-2.09.07-4.35-1.01-6.19-.13-.22-.06-.51.17-.64.22-.13.51-.06.64.17 1.2 2.04 1.61 4.54 1.12 6.86C14.85 38.84 14.65 39 14.43 39zM14.85 20.8c-.09 0-.18-.03-.27-.08-.21-.15-.27-.44-.12-.65 1.21-1.77 1.84-3.92 1.76-6.07-.01-.26.19-.48.45-.49.24 0 .48.19.49.45.09 2.35-.6 4.7-1.93 6.64C15.14 20.73 15 20.8 14.85 20.8zM45.44 14.59c-.03 0-.06 0-.09-.01-2.76-.51-5.07-2.79-5.61-5.54-.05-.25.12-.5.37-.55.25-.05.5.12.55.37.47 2.38 2.47 4.36 4.86 4.8.25.05.42.29.38.55C45.86 14.43 45.66 14.59 45.44 14.59z"/><g><path fill="#010101" d="M22.04 21.67c-.01 0-.02 0-.04 0-.26-.02-.45-.24-.43-.5.01-.17-.1-.37-.2-.5-.07-.1-.16-.19-.24-.29-.12-.13-.23-.26-.33-.41-.28-.4-.45-.87-.48-1.35-.02-.26.17-.48.43-.5.27-.02.48.17.5.43.02.31.14.63.32.88.08.12.17.22.27.33.1.11.2.23.29.35.28.38.41.76.38 1.13C22.49 21.48 22.28 21.67 22.04 21.67zM33.25 19.13c-.19 0-.37-.12-.44-.31-.36-1.01-.44-2.1-.24-3.15.05-.25.29-.42.55-.37.25.05.42.3.37.55-.17.89-.1 1.8.2 2.65.09.24-.04.51-.28.6C33.36 19.12 33.3 19.13 33.25 19.13zM46.48 22.19c-.11 0-.22-.04-.31-.12-.19-.17-.21-.47-.04-.66.63-.72.97-1.72.91-2.68-.02-.26.18-.48.44-.5.26-.02.48.18.5.44.08 1.22-.33 2.45-1.14 3.36C46.74 22.14 46.61 22.19 46.48 22.19z"/><path fill="#CEFFAE" d="M44.1,46.11c-1.43,1.38-2.73,2.42-3.81,3.67c-0.91,1.06-1.51,2.34-1.81,3.69l-10.51-0.04        c-0.72-1.69-2.07-2.54-2.07-2.54c-4.03-2.64-6.54-5.77-7.68-9.35c-1.61-5.08-0.18-10.65,3.52-14.49        c2.2-2.29,4.97-3.72,8.25-4.37c2.54-0.5,5.18-0.41,7.71,0.18c5.8,1.36,10.26,4.78,10.94,11.02        C49.15,38.43,47.4,42.95,44.1,46.11z"/><path fill="#fff" d="M24.36,27.16c-3.7,3.84-5.13,9.41-3.52,14.49c1.14,3.58,3.65,6.71,7.68,9.34c0,0,1.3,0.83,2.03,2.46        l-2.58-0.01c-0.72-1.69-2.07-2.55-2.07-2.55c-4.03-2.64-6.54-5.77-7.68-9.34c-1.61-5.08-0.18-10.65,3.52-14.49        c2.21-2.29,4.97-3.72,8.25-4.37c1.77-0.35,3.6-0.42,5.4-0.22c-0.94,0.03-1.87,0.14-2.78,0.32        C29.33,23.43,26.57,24.87,24.36,27.16z"/><path fill="#010101" d="M38.48,53.94C38.48,53.94,38.48,53.94,38.48,53.94L27.97,53.9c-0.19,0-0.36-0.11-0.43-0.28      c-0.66-1.54-1.88-2.33-1.89-2.33c-4.04-2.64-6.69-5.87-7.87-9.6c-1.65-5.19-0.26-10.92,3.63-14.96c2.23-2.32,5.09-3.83,8.49-4.5      c2.53-0.5,5.27-0.44,7.91,0.18c4.7,1.1,10.48,3.97,11.3,11.43l0,0c0.51,4.59-1.24,9.31-4.69,12.62      c-0.5,0.48-0.98,0.92-1.45,1.34c-0.84,0.77-1.64,1.49-2.33,2.29c-0.83,0.96-1.41,2.16-1.7,3.48      C38.89,53.78,38.7,53.94,38.48,53.94z M28.27,52.96L38.11,53c0.35-1.33,0.97-2.54,1.82-3.53c0.72-0.84,1.54-1.58,2.41-2.37      c0.46-0.42,0.94-0.85,1.43-1.33c3.24-3.11,4.88-7.53,4.41-11.84c0,0,0,0,0,0C47.42,27.03,42,24.35,37.6,23.32      c-2.51-0.59-5.11-0.65-7.52-0.17c-3.21,0.63-5.9,2.06-8,4.23c-3.65,3.79-4.95,9.16-3.41,14.02c1.12,3.52,3.64,6.58,7.49,9.09      C26.21,50.53,27.48,51.35,28.27,52.96z"/><path fill="#155647" d="M29.75,61.3c1.23,1.81,3.66,2.23,5.54,1.12c1.46-0.86,2.39-2.31,2.77-4.34l-9.47-0.03      C28.8,59.35,29.17,60.45,29.75,61.3z"/><path fill="#fff" d="M34.15,62.89c-1.63,0.42-3.41-0.13-4.4-1.59c-0.58-0.85-0.95-1.95-1.16-3.26l2.44,0.01      c0,0.02,0.01,0.06,0.01,0.08c0.21,1.31,0.58,2.42,1.16,3.26C32.69,62.12,33.38,62.62,34.15,62.89z"/><path fill="#155647" d="M28.3,54.45c0.08,0.36,0.1,0.74,0.1,1.11c0.01,0.9,0.07,1.73,0.19,2.49l9.47,0.03      c0.14-0.75,0.21-1.58,0.2-2.49c-0.01-0.71,0.07-1.42,0.22-2.11l-10.51-0.04C28.1,53.74,28.22,54.08,28.3,54.45z"/><path fill="#fff" d="M31.03,58.05l-2.44-0.01c-0.12-0.76-0.18-1.59-0.2-2.49c0-0.37-0.02-0.75-0.1-1.11      c-0.07-0.37-0.19-0.7-0.32-1.01l2.41,0.01c0.13,0.3,0.29,0.74,0.36,1.1c0.08,0.36,0.1,0.73,0.1,1.11      C30.86,56.51,30.92,57.31,31.03,58.05z"/><g><path fill="#010101" d="M33.08,63.49c-1.46,0-2.87-0.68-3.72-1.93l0,0c-0.6-0.88-1.01-2.04-1.23-3.45      c-0.02-0.14,0.02-0.27,0.11-0.38c0.09-0.1,0.22-0.16,0.36-0.16c0,0,0,0,0,0l9.47,0.03c0.14,0,0.27,0.06,0.36,0.17      c0.09,0.11,0.13,0.25,0.1,0.39c-0.41,2.16-1.41,3.72-2.99,4.66C34.76,63.27,33.91,63.49,33.08,63.49z M29.15,58.51      c0.21,1.03,0.54,1.88,0.98,2.52c0,0,0,0,0,0c1.07,1.58,3.19,2,4.91,0.98c1.22-0.72,2.02-1.86,2.43-3.47L29.15,58.51z"/></g><g><path fill="#010101" d="M38.06,58.54C38.06,58.54,38.06,58.54,38.06,58.54l-9.47-0.03c-0.23,0-0.43-0.17-0.46-0.4      c-0.12-0.77-0.19-1.63-0.2-2.55c0-0.29-0.02-0.67-0.09-1.02c0,0,0,0,0,0c-0.07-0.31-0.16-0.61-0.3-0.93      c-0.06-0.15-0.05-0.31,0.04-0.44c0.09-0.13,0.23-0.21,0.39-0.21c0,0,0,0,0,0L38.48,53c0.14,0,0.28,0.07,0.36,0.18      c0.09,0.11,0.12,0.26,0.09,0.39c-0.15,0.67-0.22,1.35-0.21,2.01c0.01,0.91-0.06,1.78-0.21,2.58      C38.48,58.38,38.28,58.54,38.06,58.54z M29,57.57l8.66,0.03c0.09-0.63,0.14-1.31,0.13-2.02c-0.01-0.55,0.04-1.1,0.12-1.65      l-9.27-0.03c0.04,0.15,0.08,0.29,0.11,0.44c0.09,0.43,0.11,0.87,0.11,1.2C28.87,56.27,28.92,56.95,29,57.57z"/></g><g><path fill="#010101" d="M45.94,38.03C45.94,38.03,45.94,38.03,45.94,38.03c-0.26,0-0.47-0.22-0.47-0.47      c0.03-3.12-0.85-6.05-2.42-8.05c-0.16-0.2-0.13-0.5,0.08-0.66c0.2-0.16,0.5-0.12,0.66,0.08c1.73,2.2,2.66,5.27,2.62,8.64      C46.41,37.82,46.2,38.03,45.94,38.03z"/></g><g><path fill="#010101" d="M41.91,28.17c-0.1,0-0.2-0.03-0.29-0.1c-0.37-0.28-0.76-0.53-1.17-0.75c-0.23-0.12-0.32-0.4-0.2-0.63      c0.12-0.23,0.4-0.32,0.63-0.2c0.46,0.24,0.9,0.52,1.31,0.84c0.2,0.16,0.24,0.45,0.08,0.66C42.19,28.11,42.05,28.17,41.91,28.17z      "/></g><g><path fill="#010101" d="M35.64,53.93c-0.06,0-0.11-0.01-0.17-0.03c-0.24-0.09-0.36-0.37-0.27-0.61c0.11-0.29,0.19-0.61,0.27-0.94     c0.84-3.51,1.02-7.1,0.55-10.68l-0.04-0.31c-0.05-0.41-0.11-0.84-0.13-1.27c-1.46-0.01-3.44-0.01-4.9,0     c-0.02,0.42-0.08,0.83-0.13,1.23l-0.05,0.34c-0.47,3.57-0.29,7.17,0.55,10.69c0.06,0.27,0.15,0.61,0.27,0.93     c0.09,0.24-0.03,0.51-0.28,0.6c-0.24,0.09-0.51-0.03-0.6-0.28c-0.14-0.37-0.23-0.75-0.3-1.04c-0.86-3.63-1.05-7.34-0.57-11.02     l0.05-0.35c0.05-0.38,0.1-0.75,0.12-1.11c-0.3,0-0.55,0-0.72,0.01c-0.47,0-1.08-0.02-1.63-0.27c-0.63-0.29-1.07-0.84-1.17-1.43     c-0.14-0.9,0.58-1.83,1.53-1.99c0.8-0.14,1.68,0.23,2.24,0.95c0.36,0.47,0.59,1.09,0.67,1.8c1.47-0.01,3.47-0.01,4.94,0     c0.08-0.7,0.31-1.32,0.68-1.79c0.55-0.72,1.43-1.09,2.24-0.95c0.94,0.16,1.66,1.09,1.52,1.99c-0.09,0.6-0.54,1.15-1.17,1.44     c-0.55,0.25-1.17,0.28-1.64,0.27c-0.17,0-0.42-0.01-0.72-0.01c0.02,0.37,0.07,0.75,0.12,1.14l0.04,0.31     c0.49,3.69,0.3,7.4-0.57,11.02c-0.09,0.36-0.18,0.71-0.31,1.06C36.01,53.82,35.83,53.93,35.64,53.93z M36.82,39.16     c0.29,0,0.54,0,0.71,0.01c0.4,0.01,0.85-0.01,1.23-0.19c0.34-0.16,0.59-0.44,0.63-0.72c0.06-0.4-0.31-0.85-0.76-0.92     c-0.46-0.08-1,0.16-1.34,0.6C37,38.31,36.87,38.76,36.82,39.16z M28.36,37.32c-0.06,0-0.12,0.01-0.18,0.02     c-0.45,0.08-0.82,0.53-0.76,0.92c0.04,0.28,0.29,0.57,0.63,0.72c0.38,0.17,0.83,0.19,1.23,0.19c0.17,0,0.41,0,0.71-0.01     c-0.06-0.4-0.19-0.85-0.47-1.23C29.22,37.55,28.77,37.32,28.36,37.32z"/></g></g><g><path fill="#010101" d="M17.74 58.99c-.13 0-.27-.06-.36-.17-.17-.2-.14-.5.06-.66.16-.14.35-.27.54-.41.21-.15.51-.09.65.12.15.21.09.51-.12.65-.17.12-.33.23-.47.35C17.95 58.95 17.84 58.99 17.74 58.99zM20.12 57.57c-.18 0-.35-.1-.43-.27-.11-.24-.01-.51.23-.62 1.68-.77 3.32-1.25 3.39-1.26.25-.07.51.07.58.32.07.25-.07.51-.32.58-.02 0-1.64.47-3.25 1.21C20.26 57.56 20.19 57.57 20.12 57.57zM22.8 63.16c-.07 0-.14-.02-.21-.05-.23-.11-.33-.4-.21-.63.59-1.19 1.26-2.34 2-3.43.15-.21.44-.27.65-.12.21.15.27.44.12.65-.72 1.05-1.37 2.17-1.94 3.32C23.14 63.06 22.98 63.16 22.8 63.16zM22.09 53.13c-.02 0-.03 0-.05 0l-5.09-.52c-.26-.03-.45-.26-.42-.51.03-.26.26-.45.52-.42l5.09.52c.26.03.44.26.42.51C22.53 52.95 22.32 53.13 22.09 53.13z"/></g></svg>