<svg xmlns="http://www.w3.org/2000/svg" viewBox="0 0 512 512" width="512" height="512"><path fill="#155647"
     d="m131.23,134.51c-21.99,12.06-46.08,26.77-52.08,51.13-5.08,20.64,4.64,41.8,14.98,60.37,35.14,63.09,81.67,121.2,142.2,160.58,12.74,8.29,26.22,15.79,40.89,19.78s30.72,4.26,44.75-1.61c15.64-6.55,27.24-19.88,38.25-32.78,4.2-4.92,8.39-9.83,12.59-14.75.92-1.08,1.91-2.33,1.79-3.75-.12-1.45-1.33-2.54-2.45-3.46-18.93-15.55-37.85-31.1-56.78-46.65-1.48-1.22-3.13-2.5-5.05-2.52-1.65-.01-3.14.92-4.53,1.82-7.43,4.82-14.86,9.64-22.29,14.46-5.88,3.81-12.6,7.79-19.44,6.28-3.9-.86-7.17-3.42-10.28-5.92-32.09-25.87-62.12-54.28-89.73-84.88-1.36-1.5-2.76-3.13-3.11-5.12-.41-2.39.8-4.73,2.03-6.82,5.38-9.12,11.96-17.53,19.52-24.95,1.7-1.67,3.53-3.43,4.03-5.75.46-2.11-.27-4.27-1.03-6.29-10.39-27.62-28.68-52.21-52.13-70.11"/>
     <path fill="#9FFB83" d="m242.05,126.12c-9.59,1.67-19.64,6.8-22.69,16.05-1.28,3.88-1.19,8.06-1.08,12.15.59,21.95,1.17,43.91,1.76,65.86.2,7.66.69,16.05,5.89,21.67,4.33,4.68,11.13,6.37,17.5,6.03,1.35-.07,2.8-.21,3.99.44,1.47.8,2.12,2.53,2.63,4.12,3.3,10.38,5.43,21.13,6.36,31.98,7.41-8.94,14.19-18.4,20.26-28.29,1.23-2,2.51-4.1,4.53-5.28,1.42-.83,3.08-1.13,4.71-1.37,6.2-.92,12.46-1.22,18.72-1.51,17.38-.82,34.77-1.63,52.15-2.45,6.4-.3,13.3-.78,18.24-4.87,6.16-5.09,7.23-13.98,7.64-21.97,1.22-23.65.65-47.35.09-71.03-.06-2.41-.12-4.85-.87-7.14-1.99-6.05-8.23-9.59-14.27-11.61-10.86-3.63-22.5-4.16-33.95-4.28-30.37-.31-60.69,2.1-91.06,2.77"/><path fill="none" stroke="#155647" stroke-linecap="round" stroke-linejoin="round" stroke-width="5.66" d="M371.16 110.48c1.15-5.11 2.31-22.66 3.46-27.76M395.93 114.96c4.61-4.28 19.74-17.76 24.35-22.04M406.32 132.34c7.41-1.98 20.5-6.03 27.91-8.01"/><path fill="#fff" d="M274.33 178.24c-1.8-1.2-4.2-1.43-6.29-1.44-.77 0-1.59.07-2.41.18-.87 0-1.75.04-2.61.22-2.45.49-4.86 1.61-6.39 3.65-1.26 1.69-1.82 3.94-1.62 6.03.21 2.23 1.12 4.43 3.16 5.56 3.33 1.85 7.71 1.87 11.36 1.2 2.67-.49 5.12-1.73 6.45-4.17.96-1.75 1.56-3.82 1.39-5.83-.18-2.16-1.23-4.2-3.06-5.41zM310.61 178.24c-1.8-1.2-4.2-1.43-6.29-1.44-.77 0-1.59.07-2.41.18-.87 0-1.75.04-2.61.22-2.45.49-4.86 1.61-6.39 3.65-1.26 1.69-1.82 3.94-1.62 6.03.21 2.23 1.12 4.43 3.16 5.56 3.33 1.85 7.71 1.87 11.36 1.2 2.67-.49 5.12-1.73 6.45-4.17.96-1.75 1.56-3.82 1.39-5.83-.18-2.16-1.23-4.2-3.06-5.41zM346.38 177.2c-1.8-1.2-4.2-1.43-6.29-1.44-.77 0-1.59.07-2.41.18-.87 0-1.75.04-2.61.22-2.45.49-4.86 1.61-6.39 3.65-1.26 1.69-1.82 3.94-1.62 6.03.21 2.23 1.12 4.43 3.16 5.56 3.33 1.85 7.71 1.87 11.36 1.2 2.67-.49 5.12-1.73 6.45-4.17.96-1.75 1.56-3.82 1.39-5.83-.18-2.17-1.23-4.2-3.06-5.41z"/><path fill="none" stroke="#fff" stroke-linecap="round" stroke-linejoin="round" stroke-width="5.66" d="M116.75 156.07c-9.07 8.61-18.45 17.7-22.45 29.55-3.78 11.2-2.04 24.12 4.57 33.92M106.84 364.75c3.63 1.52 4.42 7.27 1.33 9.7-3.09 2.43-8.5.32-9.12-3.57-.62-3.89 3.93-7.75 7.8-6.14zM250.62 86.53c3.63 1.52 4.42 7.27 1.33 9.7-3.09 2.43-8.5.32-9.12-3.57-.62-3.89 3.93-7.75 7.8-6.14zM399.48 323.93c3.63 1.52 4.42 7.27 1.33 9.7s-8.5.32-9.12-3.57 3.93-7.75 7.8-6.14z"/></svg>