<svg xmlns="http://www.w3.org/2000/svg" enable-background="new 0 0 66 66" viewBox="0 0 66 66" width="66" height="66"><path fill="#CEFFAE" d="M48.75,58.23c0.01,1.36-0.05,2.88-1.04,3.82c-0.85,0.8-2.12,0.92-3.29,0.98H8.26           c-1.17-0.07-2.44-0.18-3.29-0.98c-0.99-0.94-1.05-2.46-1.04-3.82l0.13-43.18c0.01-2.26,1.83-4.08,4.09-4.08h36.38           c2.26,0,4.08,1.82,4.09,4.08L48.75,58.23z"/><path fill="#fff" d="M10.6,63.03H8.26c-1.17-0.07-2.44-0.18-3.29-0.98c-0.99-0.94-1.05-2.46-1.04-3.82l0.14-43.18           c0-2.25,1.83-4.08,4.08-4.08h2.35c-2.25,0-4.08,1.83-4.08,4.08L6.27,58.23c0,1.36,0.05,2.88,1.04,3.82           C8.16,62.85,9.43,62.97,10.6,63.03z"/><path fill="#010101" d="M8.26,63.5c-1.38-0.08-2.67-0.22-3.61-1.11c-1.11-1.05-1.2-2.7-1.19-4.16l0.13-43.18           c0.01-2.51,2.05-4.55,4.56-4.55h36.38c2.5,0,4.55,2.04,4.56,4.55l0.13,43.18c0.01,1.46-0.08,3.11-1.19,4.16           c-0.94,0.89-2.23,1.03-3.59,1.11L8.26,63.5z M8.15,11.44c-1.99,0-3.61,1.62-3.62,3.61L4.4,58.23           c-0.01,1.32,0.06,2.68,0.9,3.48C6,62.38,7.11,62.5,8.28,62.56l36.13,0c1.15-0.07,2.26-0.18,2.97-0.85           c0.84-0.8,0.9-2.15,0.9-3.48c0,0,0,0,0,0l-0.13-43.18c-0.01-1.99-1.63-3.61-3.62-3.61H8.15z"/><path fill="#fff" d="M8.33,49.23l0-32.36c0-0.98,0.79-1.77,1.77-1.78c10.67-0.07,21.77-0.08,32.65-0.04            c0.52,0,1.09,0.4,1.26,0.9c0.17,0.48,0.17,1.01,0.16,1.51c-0.06,8.86-0.02,33.89,0,39.94c0,0.74-0.59,1.33-1.33,1.34            l-27.24,0.25l0.21-7.87c0.03-0.89-0.7-1.61-1.58-1.59C12.26,49.58,10.29,49.46,8.33,49.23z"/><path fill="#155647" d="M15.61,58.98l0.21-7.87c0.02-0.89-0.7-1.61-1.59-1.59c-1.97,0.05-3.94-0.06-5.89-0.29                C10.21,52.88,12.69,56.09,15.61,58.98z"/><path fill="#010101" d="M15.61,59.45c-0.13,0-0.25-0.05-0.33-0.14c-0.09-0.09-0.14-0.21-0.13-0.34l0.21-7.87                c0.01-0.3-0.1-0.58-0.31-0.79c-0.21-0.21-0.49-0.33-0.79-0.32c-1.9,0.05-3.85-0.04-5.96-0.29                c-0.24-0.03-0.41-0.23-0.41-0.47V16.87c0-1.23,1-2.24,2.23-2.25c10.47-0.07,21.45-0.08,32.66-0.04                c0.72,0.01,1.47,0.54,1.7,1.21c0.2,0.57,0.19,1.18,0.19,1.67c-0.06,7.88-0.03,28.4,0,39.93c0,0.99-0.8,1.8-1.79,1.81                L15.61,59.45C15.61,59.45,15.61,59.45,15.61,59.45z M14.27,49.05c0.53,0,1.05,0.21,1.43,0.59                c0.39,0.4,0.6,0.92,0.58,1.48l-0.19,7.38l26.75-0.25c0.47-0.01,0.86-0.4,0.86-0.87c-0.02-11.53-0.05-32.05,0-39.94                c0-0.44,0.01-0.94-0.14-1.36c-0.1-0.3-0.5-0.58-0.82-0.58c-11.2-0.04-22.18-0.03-32.64,0.04                c-0.72,0.01-1.3,0.59-1.3,1.31v31.94c1.9,0.21,3.68,0.29,5.41,0.24C14.23,49.05,14.25,49.05,14.27,49.05z"/><path fill="#010101" d="M15.61,59.45c-0.12,0-0.24-0.05-0.33-0.14c-3.15-3.13-5.55-6.36-7.36-9.87                c-0.08-0.15-0.07-0.34,0.03-0.48c0.1-0.14,0.27-0.22,0.44-0.2c1.97,0.24,3.93,0.34,5.83,0.29                c0.56-0.01,1.09,0.2,1.48,0.59c0.39,0.39,0.6,0.92,0.59,1.48L16.07,59c-0.01,0.19-0.12,0.35-0.29,0.42                C15.72,59.44,15.66,59.45,15.61,59.45z M9.16,49.79c1.55,2.84,3.52,5.49,6,8.07l0.18-6.77                c0.01-0.3-0.1-0.58-0.31-0.79c-0.21-0.21-0.49-0.32-0.8-0.32C12.58,50.03,10.88,49.97,9.16,49.79z"/><g><path fill="#155647" d="M22.46,11.28l0-6.9c0-0.74,0.6-1.35,1.35-1.35c1.65,0.01,3.42-0.07,5.06-0.06             c0.73,0,1.34,0.59,1.35,1.32c0.03,2.41-0.19,5.03-0.04,7.34L22.46,11.28z"/><path fill="#010101" d="M30.17,12.1c-0.01,0-0.01,0-0.02,0l-7.71-0.35c-0.25-0.01-0.45-0.22-0.45-0.47l0-6.9             c0-0.49,0.19-0.95,0.54-1.29c0.34-0.34,0.79-0.53,1.27-0.53c0.09,0,0.16,0,0.24,0c0.74,0,1.51-0.02,2.27-0.03             c0.85-0.02,1.73-0.04,2.57-0.03c0.99,0.01,1.8,0.81,1.81,1.78c0.01,0.99-0.02,2.04-0.04,3.04             c-0.04,1.44-0.08,2.93,0,4.27c0.01,0.13-0.04,0.26-0.13,0.36C30.41,12.05,30.29,12.1,30.17,12.1z M22.93,10.83l6.75,0.31             C29.63,9.9,29.66,8.58,29.7,7.3c0.03-1,0.06-2.03,0.04-3.01c-0.01-0.47-0.4-0.85-0.88-0.86c-0.82,0-1.7,0.01-2.54,0.03             c-0.84,0.02-1.7,0.04-2.52,0.03c-0.22,0-0.45,0.09-0.62,0.25c-0.17,0.17-0.26,0.39-0.26,0.62L22.93,10.83z"/><path fill="#155647" d="M37.2,14.67c-0.58,0.87-1.68,1.64-3.11,1.98c-0.91,0.21-1.89,0.25-2.86,0.28l-4.89-0.05l-4.89,0.05            c-0.97-0.03-1.96-0.07-2.86-0.28c-1.43-0.34-2.53-1.11-3.11-1.98c-0.58-0.87-0.68-1.84-0.53-2.78            c0.11-0.68,0.4-1.41,1.23-1.86c0.97-0.52,2.38-0.55,3.67-0.55c2.16,0,4.33,0,6.49,0c2.16,0,4.33,0,6.49,0            c1.29,0,2.71,0.03,3.67,0.55c0.84,0.46,1.12,1.18,1.23,1.86C37.88,12.83,37.78,13.8,37.2,14.67z"/><path fill="#fff" d="M24.04,16.9l-2.59,0.03c-0.97-0.03-1.96-0.07-2.86-0.28c-1.43-0.34-2.53-1.11-3.11-1.98            c-0.58-0.87-0.68-1.84-0.53-2.78c0.11-0.69,0.39-1.41,1.23-1.87c0.97-0.52,2.39-0.55,3.67-0.55h2.35            c-0.99,0.04-1.97,0.16-2.69,0.55c-0.84,0.46-1.12,1.18-1.23,1.87c-0.15,0.93-0.04,1.91,0.53,2.78            c0.58,0.87,1.68,1.64,3.11,1.98C22.59,16.81,23.31,16.87,24.04,16.9z"/><path fill="#010101" d="M21.45,17.4c-1.05-0.03-2.04-0.07-2.98-0.29c-1.46-0.34-2.7-1.14-3.39-2.17            c-0.59-0.89-0.79-1.94-0.61-3.11c0.17-1.03,0.65-1.75,1.47-2.2c1.04-0.56,2.44-0.61,3.9-0.61l6.49,0l6.49,0            c1.46,0,2.86,0.05,3.9,0.61c0.82,0.45,1.3,1.17,1.47,2.2c0.19,1.18-0.02,2.22-0.6,3.11c0,0,0,0,0,0            c-0.7,1.04-1.93,1.83-3.39,2.17c-0.93,0.22-1.93,0.26-2.96,0.29l-4.91-0.05L21.45,17.4z M26.34,9.94l-6.49,0            c-1.34,0-2.61,0.04-3.45,0.49c-0.57,0.31-0.87,0.78-0.99,1.53c-0.15,0.93,0.01,1.76,0.46,2.44            c0.56,0.84,1.59,1.49,2.83,1.78c0.85,0.2,1.79,0.24,2.77,0.27l4.87-0.05l4.9,0.05c0.96-0.03,1.91-0.07,2.75-0.27            c1.23-0.29,2.26-0.94,2.83-1.78c0.45-0.69,0.61-1.51,0.46-2.44c-0.12-0.75-0.43-1.22-0.99-1.53            c-0.84-0.46-2.11-0.49-3.45-0.49L26.34,9.94z M37.2,14.67L37.2,14.67L37.2,14.67z"/></g><g><path fill="#155647" d="M11.91,25.46c-0.11,1.67,0.73,3.4,2.21,4.36c1.48,0.96,3.56,1.1,5.14,0.29         c1.57-0.81,2.54-2.49,2.52-4.15c-0.02-1.61-0.92-3.18-2.35-4.09c-1.17-0.75-2.66-1.04-4.06-0.81         c-1.27,0.21-2.25,1.3-2.82,2.32C12.19,24.02,11.96,24.73,11.91,25.46z"/><path fill="#fff" d="M17.93,30.55c-1.3,0.24-2.72-0.03-3.81-0.74c-1.48-0.96-2.32-2.68-2.21-4.36         c0.05-0.73,0.28-1.44,0.64-2.08c0.57-1.02,1.55-2.12,2.82-2.32c0.62-0.1,1.27-0.1,1.89,0c-1.27,0.21-2.24,1.3-2.81,2.32         c-0.36,0.65-0.59,1.36-0.64,2.08c-0.11,1.68,0.73,3.4,2.21,4.36C16.59,30.19,17.25,30.44,17.93,30.55z"/><path fill="#010101" d="M16.97,31.11c-1.09,0-2.2-0.3-3.11-0.9c-1.6-1.04-2.55-2.92-2.42-4.79c0,0,0,0,0,0         c0.05-0.78,0.29-1.57,0.7-2.28c0.38-0.68,1.45-2.28,3.15-2.56c1.53-0.25,3.13,0.07,4.39,0.88c1.56,1,2.54,2.72,2.56,4.48         c0.02,1.87-1.09,3.71-2.77,4.58C18.71,30.92,17.85,31.11,16.97,31.11z M12.38,25.49c-0.1,1.53,0.68,3.08,2,3.93         c1.37,0.89,3.24,1,4.67,0.27c1.37-0.71,2.28-2.21,2.26-3.73c-0.02-1.45-0.83-2.87-2.13-3.7c-1.07-0.68-2.43-0.95-3.73-0.74         c-1.3,0.21-2.17,1.53-2.48,2.09C12.62,24.2,12.42,24.85,12.38,25.49L12.38,25.49z"/><path fill="#010101" d="M15.78,28C15.78,28,15.78,28,15.78,28c-0.14,0-0.26-0.06-0.35-0.16l-1.28-1.43         c-0.17-0.19-0.16-0.49,0.04-0.66c0.19-0.17,0.49-0.16,0.66,0.04l0.95,1.05c0.89-0.88,1.99-1.74,3.28-2.56         c0.22-0.14,0.51-0.08,0.65,0.14c0.14,0.22,0.08,0.51-0.14,0.65c-1.38,0.89-2.58,1.85-3.46,2.78         C16.03,27.95,15.91,28,15.78,28z"/><g><path fill="#010101" d="M40.3 26.58c-.1 0-.2-.03-.28-.1-.21-.16-.25-.45-.09-.66.16-.21.31-.42.47-.64.15-.21.44-.26.65-.11.21.15.26.44.11.65-.16.22-.32.44-.48.66C40.58 26.51 40.44 26.58 40.3 26.58zM28.71 29.07c-.8 0-1.62-.44-2.12-1.17-.44.35-.91.65-1.41.9-.23.12-.51.02-.63-.21-.12-.23-.02-.51.21-.63.51-.25.98-.57 1.42-.93-.19-.64-.2-1.38-.04-2.14.09-.42.27-1.02.76-1.42.29-.23.69-.35 1.06-.31.32.04.6.19.79.42.36.46.34 1.11-.07 1.86-.37.68-.84 1.3-1.39 1.85 0 .01.01.01.01.01.37.62 1.11.97 1.7.81.55-.15.97-.66 1.4-1.21l.18-.22c1.02-1.24 1.92-1.38 2.5-1.28.57.1 1.03.48 1.36.75.98.81 1.87 1.49 2.85 1.45.67-.02 1.25-.38 1.61-.67.2-.16.5-.13.66.07.16.2.13.5-.07.66-.68.56-1.44.86-2.17.88-1.42.04-2.61-.94-3.48-1.67-.33-.28-.62-.49-.92-.55-.6-.11-1.21.46-1.61.95l-.17.21c-.49.61-1.04 1.3-1.89 1.52C29.08 29.05 28.9 29.07 28.71 29.07zM27.81 24.08c-.11 0-.24.04-.32.11-.2.16-.34.45-.43.89-.09.41-.11.8-.08 1.16.34-.39.64-.81.89-1.27.2-.37.26-.68.16-.82-.04-.05-.11-.07-.16-.07C27.85 24.08 27.83 24.08 27.81 24.08z"/></g></g><g><path fill="#fff" d="M11.91,39.84c-0.11,1.67,0.73,3.4,2.21,4.36c1.48,0.96,3.56,1.1,5.14,0.29         c1.57-0.81,2.54-2.49,2.52-4.15c-0.02-1.61-0.92-3.18-2.35-4.09c-1.17-0.75-2.66-1.04-4.06-0.81         c-1.27,0.21-2.25,1.3-2.82,2.32C12.19,38.4,11.96,39.11,11.91,39.84z"/><path fill="#CEFFAE" d="M18.22,44.88c-1.38,0.33-2.93,0.08-4.1-0.68c-1.48-0.96-2.33-2.68-2.21-4.36         c0.05-0.73,0.27-1.44,0.64-2.08c0.57-1.02,1.55-2.12,2.82-2.32c0.73-0.12,1.49-0.1,2.21,0.06c-1.14,0.3-2.01,1.31-2.54,2.26         c-0.36,0.64-0.59,1.36-0.64,2.08c-0.11,1.68,0.73,3.4,2.21,4.36C17.1,44.51,17.65,44.74,18.22,44.88z"/><path fill="#010101" d="M16.97,45.49c-1.09,0-2.2-0.3-3.11-0.9c-1.6-1.04-2.55-2.92-2.42-4.78c0,0,0,0,0,0         c0.05-0.78,0.29-1.57,0.7-2.28c0.38-0.68,1.45-2.28,3.15-2.56c1.53-0.25,3.13,0.07,4.39,0.88c1.56,1,2.54,2.72,2.56,4.48         c0.02,1.87-1.09,3.71-2.77,4.58C18.71,45.3,17.85,45.49,16.97,45.49z M12.38,39.87c-0.1,1.53,0.68,3.08,2,3.93         c1.37,0.89,3.24,1,4.67,0.27c1.37-0.71,2.28-2.21,2.26-3.73c-0.02-1.45-0.83-2.87-2.13-3.7c-1.07-0.68-2.43-0.95-3.73-0.74         c-1.3,0.21-2.17,1.53-2.48,2.09C12.62,38.58,12.42,39.23,12.38,39.87L12.38,39.87z"/><path fill="#010101" d="M15.78,42.38C15.78,42.38,15.78,42.38,15.78,42.38c-0.14,0-0.26-0.06-0.35-0.16l-1.28-1.43         c-0.17-0.19-0.16-0.49,0.04-0.66c0.19-0.17,0.49-0.16,0.66,0.04l0.95,1.05c0.89-0.88,1.99-1.74,3.28-2.56         c0.22-0.14,0.51-0.08,0.65,0.14c0.14,0.22,0.08,0.51-0.14,0.65c-1.38,0.89-2.58,1.85-3.46,2.78         C16.03,42.33,15.91,42.38,15.78,42.38z"/><g><path fill="#010101" d="M40.3 40.96c-.1 0-.2-.03-.28-.1-.21-.16-.25-.45-.09-.66.16-.21.31-.42.47-.64.15-.21.44-.26.65-.11.21.15.26.44.11.65-.16.22-.32.44-.48.66C40.58 40.89 40.44 40.96 40.3 40.96zM28.71 43.45c-.8 0-1.62-.44-2.12-1.17-.44.35-.91.65-1.41.9-.23.12-.51.02-.63-.21-.12-.23-.02-.51.21-.63.51-.25.98-.57 1.42-.93-.19-.64-.2-1.38-.04-2.14.09-.42.27-1.02.76-1.42.29-.23.69-.35 1.06-.31.32.04.6.19.79.42.36.46.34 1.11-.07 1.86-.37.68-.84 1.3-1.39 1.85 0 0 .01.01.01.01.37.62 1.1.97 1.7.81.55-.15.97-.66 1.4-1.21l.18-.22c1.02-1.24 1.92-1.38 2.5-1.28.57.1 1.03.48 1.36.75.98.81 1.87 1.49 2.85 1.45.67-.02 1.25-.38 1.61-.67.2-.16.5-.13.66.07.16.2.13.5-.07.66-.68.56-1.44.86-2.17.88-1.42.04-2.61-.94-3.48-1.67-.32-.27-.62-.49-.92-.55-.6-.11-1.21.46-1.61.95l-.17.21c-.49.61-1.04 1.3-1.89 1.52C29.08 43.43 28.9 43.45 28.71 43.45zM27.81 38.46c-.11 0-.24.04-.32.11-.2.16-.34.45-.43.89-.09.41-.11.8-.08 1.16.34-.39.64-.81.89-1.27.2-.37.26-.68.16-.82-.04-.05-.11-.07-.16-.07C27.85 38.46 27.83 38.46 27.81 38.46z"/></g></g><g><path fill="#155647" d="M45.78,51.69c4.02-6.37,8.76-12.76,13.14-19.13c-1.57-2.01-3.68-3.51-6.23-4.57       c-4.38,6.38-8.76,12.76-13.14,19.13c0.59,1.04,1.63,1.75,2.83,1.79c0.31,0.01,0.65-0.01,0.89,0.19       c0.22,0.18,0.27,0.49,0.36,0.75C43.93,50.77,44.84,51.53,45.78,51.69z"/><path fill="#CEFFAE" d="M45.78,51.69l-7.91,4.54l1.68-9.11c0.59,1.04,1.63,1.75,2.83,1.79c0.31,0.01,0.65-0.01,0.89,0.19       c0.22,0.18,0.27,0.49,0.36,0.76C43.93,50.77,44.84,51.53,45.78,51.69z"/><path fill="#fff" d="M40.93 54.49l-3.05 1.75.65-3.55C39.33 52.59 40.84 53.71 40.93 54.49zM54.22 25.93c2.55 1.06 4.65 2.55 6.23 4.57l-1.52 2.06c-1.57-2.01-3.68-3.51-6.23-4.57L54.22 25.93z"/><path fill="#CEFFAE" d="M61.54,29.18c-0.35,0.47-0.71,0.91-1.09,1.32c-1.57-2.01-3.68-3.51-6.23-4.57       c0.31-0.48,0.63-0.94,0.96-1.39c0.8-1.1,2.3-1.42,3.47-0.75c0.93,0.53,1.78,1.15,2.55,1.84       C62.22,26.55,62.36,28.09,61.54,29.18z"/><g><path fill="#010101" d="M45.78,52.16c-0.03,0-0.05,0-0.08-0.01c-1.12-0.19-2.18-1.09-2.52-2.15l-0.05-0.15       c-0.05-0.16-0.1-0.33-0.17-0.38c-0.08-0.07-0.29-0.07-0.48-0.08l-0.12,0c-1.32-0.05-2.53-0.81-3.23-2.03       c-0.09-0.16-0.08-0.35,0.02-0.5l13.14-19.13c0.13-0.18,0.36-0.25,0.57-0.17c2.69,1.11,4.85,2.7,6.42,4.71       c0.13,0.16,0.13,0.39,0.02,0.55c-1.46,2.13-2.99,4.29-4.47,6.39c-2.95,4.18-5.99,8.49-8.66,12.73       C46.09,52.08,45.94,52.16,45.78,52.16z M40.12,47.14c0.55,0.8,1.38,1.28,2.29,1.31l0.11,0c0.32,0.01,0.73,0.02,1.06,0.29       c0.29,0.24,0.39,0.57,0.47,0.84l0.04,0.13c0.2,0.64,0.81,1.21,1.48,1.44c2.64-4.16,5.62-8.39,8.51-12.49       c1.41-2,2.86-4.06,4.26-6.09c-1.38-1.67-3.22-3.02-5.47-4.01L40.12,47.14z"/><path fill="#010101" d="M37.88,56.71c-0.1,0-0.19-0.03-0.27-0.09c-0.15-0.11-0.22-0.29-0.19-0.47l1.68-9.11       c0.04-0.19,0.19-0.34,0.38-0.38c0.19-0.03,0.39,0.06,0.49,0.23c0.53,0.94,1.45,1.52,2.44,1.56l0.11,0       c0.32,0.01,0.72,0.02,1.06,0.29c0.29,0.24,0.39,0.57,0.47,0.84l0.04,0.13c0.23,0.73,1,1.38,1.78,1.51       c0.2,0.03,0.35,0.19,0.38,0.38c0.03,0.19-0.06,0.39-0.23,0.49l-7.91,4.54C38.04,56.68,37.96,56.71,37.88,56.71z M39.83,48.25       l-1.3,7.07l6.16-3.54c-0.7-0.4-1.27-1.05-1.5-1.78l-0.05-0.15c-0.05-0.16-0.1-0.33-0.17-0.38c-0.08-0.07-0.28-0.07-0.48-0.08       l-0.12,0C41.41,49.35,40.51,48.94,39.83,48.25z"/><path fill="#010101" d="M37.88 56.71c-.1 0-.19-.03-.27-.09-.15-.11-.22-.29-.19-.47l.65-3.55c.04-.2.2-.36.4-.38.78-.1 1.64.53 1.89.73.28.22.96.82 1.03 1.48.02.19-.07.37-.23.46l-3.05 1.75C38.04 56.68 37.96 56.71 37.88 56.71zM38.91 53.2l-.39 2.12 1.83-1.05c-.11-.17-.3-.38-.57-.59C39.47 53.44 39.16 53.28 38.91 53.2zM58.92 33.03c-.14 0-.28-.07-.37-.18-1.47-1.88-3.5-3.37-6.04-4.42-.13-.06-.23-.17-.27-.31-.04-.14-.01-.29.07-.4l1.52-2.06c.13-.17.36-.24.56-.15 2.69 1.11 4.85 2.7 6.42 4.71.13.17.13.4.01.57l-1.52 2.06C59.21 32.96 59.08 33.03 58.92 33.03 58.93 33.03 58.93 33.03 58.92 33.03zM53.43 27.8c2.23 1 4.06 2.35 5.48 4l.95-1.29c-1.38-1.67-3.22-3.01-5.48-4L53.43 27.8z"/><path fill="#010101" d="M60.45,30.97c-0.01,0-0.01,0-0.02,0c-0.14-0.01-0.27-0.07-0.35-0.18c-1.47-1.88-3.5-3.37-6.04-4.42       c-0.13-0.05-0.23-0.16-0.27-0.3c-0.04-0.13-0.02-0.28,0.06-0.4c0.3-0.46,0.62-0.92,0.97-1.41c0.94-1.3,2.7-1.68,4.08-0.88       c0.96,0.55,1.85,1.19,2.63,1.9c1.2,1.09,1.37,2.88,0.39,4.17l0,0c-0.36,0.48-0.73,0.93-1.12,1.35       C60.71,30.91,60.58,30.97,60.45,30.97z M54.92,25.72c2.25,1.01,4.11,2.37,5.54,4.05c0.24-0.28,0.47-0.57,0.7-0.87c0,0,0,0,0,0       c0.68-0.9,0.56-2.16-0.27-2.91c-0.73-0.66-1.57-1.26-2.47-1.78c-0.97-0.56-2.19-0.29-2.85,0.62       C55.34,25.13,55.13,25.43,54.92,25.72z"/></g><g><path fill="#010101" d="M44.08,47.65c-0.1,0-0.2-0.03-0.28-0.09c-0.21-0.16-0.25-0.45-0.09-0.66c3.75-4.96,7.51-10.47,10.7-15.21      c0.14-0.22,0.44-0.27,0.65-0.13c0.22,0.14,0.27,0.44,0.13,0.65c-3.19,4.75-6.96,10.28-10.73,15.26      C44.36,47.59,44.22,47.65,44.08,47.65z"/></g></g><g><path fill="#010101" d="M54.73 7.06c-.16 0-.32-.08-.4-.23-.13-.22-.06-.51.16-.64.19-.11.37-.21.56-.3.23-.11.51-.02.63.22.11.23.02.51-.22.63C55.29 6.81 55.13 6.9 54.96 7 54.89 7.04 54.81 7.06 54.73 7.06zM50.19 11.1c-.11 0-.22-.04-.3-.11-.2-.17-.22-.46-.05-.66.05-.06 1.25-1.45 2.75-2.74.2-.17.49-.15.66.05s.15.49-.05.66c-1.45 1.24-2.64 2.62-2.65 2.63C50.45 11.04 50.32 11.1 50.19 11.1zM52.97 13.79c-.22 0-.42-.16-.46-.38-.05-.25.12-.5.38-.55 1.38-.25 2.8-.42 4.2-.48.25-.01.48.19.49.45.01.26-.19.48-.45.49-1.37.06-2.74.22-4.08.47C53.03 13.79 53 13.79 52.97 13.79zM47.66 8.48c-.05 0-.1-.01-.15-.02-.25-.08-.38-.35-.3-.59l1.7-5.04c.08-.25.35-.38.59-.3.25.08.38.35.3.59l-1.7 5.04C48.04 8.36 47.85 8.48 47.66 8.48z"/></g></svg>