<svg xmlns="http://www.w3.org/2000/svg" enable-background="new 0 0 66 66" viewBox="0 0 66 66" width="66" height="66"><path fill="#CEFFAE" d="M62.08,13.67c-0.09,7.47-2,15.15-5.33,21.79c-3.17,6.31-7.83,10.45-14.48,13.58       c-0.51,0.24-1.11,0.24-1.62,0c-6.62-3.12-11-7.39-14.44-13.51c-0.03-0.04-0.05-0.09-0.07-0.14c-3.09-6.7-5.16-14.25-5.29-21.66       c-0.02-1.1,0.86-1.99,1.96-1.99c6.36,0.04,12.83-2.65,17.24-7.22c0.78-0.8,2.05-0.8,2.83,0c4.41,4.57,10.88,7.25,17.25,7.22       C61.2,11.74,62.09,12.6,62.08,13.67z"/><path fill="#010101" d="M41.46,49.68c-0.34,0-0.68-0.07-1-0.22c-6.53-3.08-11.05-7.31-14.65-13.7c-0.03-0.05-0.06-0.11-0.09-0.17       c-3.36-7.28-5.21-14.83-5.33-21.84c-0.01-0.66,0.24-1.27,0.69-1.74c0.46-0.46,1.06-0.71,1.72-0.71c0.04,0,0.08,0,0.13,0       c6.24,0,12.51-2.64,16.79-7.08c0.46-0.48,1.08-0.74,1.74-0.74c0.66,0,1.28,0.26,1.74,0.74c4.31,4.47,10.62,7.11,16.92,7.08       c0,0,0.01,0,0.01,0c0.65,0,1.26,0.25,1.72,0.72c0.45,0.45,0.69,1.05,0.68,1.68l0,0c-0.09,7.46-2,15.27-5.37,21.99       c-3.13,6.23-7.66,10.48-14.7,13.79C42.15,49.6,41.8,49.68,41.46,49.68z M22.8,12.19c-0.4,0-0.78,0.16-1.06,0.44       c-0.29,0.29-0.44,0.67-0.43,1.08c0.12,6.89,1.94,14.31,5.25,21.48c0.02,0.03,0.03,0.07,0.05,0.1       c3.5,6.23,7.9,10.34,14.25,13.33c0.39,0.18,0.84,0.18,1.23,0c6.84-3.22,11.24-7.34,14.27-13.37c3.31-6.6,5.19-14.26,5.28-21.59       c0,0,0,0,0,0c0.01-0.39-0.14-0.75-0.42-1.03c-0.28-0.29-0.67-0.45-1.07-0.45c-0.04,0-0.09,0-0.14,0c-6.48,0-13-2.74-17.45-7.36       c-0.58-0.6-1.59-0.6-2.17,0C35.89,9.48,29.34,12.23,22.8,12.19C22.8,12.19,22.8,12.19,22.8,12.19z"/><path fill="#e7ebef" d="M41.46,9.63c4.3,4.29,9.46,6.19,14.59,6.29c0.28,13.26-4.47,22.29-14.59,26.8V9.63z"/><path fill="#fff" d="M41.49,9.63c-4.3,4.29-9.46,6.19-14.59,6.29c-0.28,13.26,4.47,22.29,14.59,26.8V9.63z"/><path fill="#010101" d="M41.46,43.17c-0.09,0-0.17-0.02-0.25-0.07c-0.13-0.08-0.21-0.23-0.21-0.38V9.63       c0-0.18,0.11-0.35,0.28-0.42c0.17-0.07,0.37-0.03,0.5,0.1c3.93,3.92,8.86,6.05,14.28,6.16c0.24,0,0.44,0.2,0.45,0.44       c0.29,13.54-4.71,22.7-14.86,27.22C41.59,43.16,41.53,43.17,41.46,43.17z M41.92,10.69v31.32       c9.25-4.41,13.85-13.03,13.69-25.65C50.47,16.16,45.77,14.2,41.92,10.69z"/><path fill="#010101" d="M41.49,43.17c-0.06,0-0.13-0.01-0.19-0.04c-10.15-4.53-15.15-13.69-14.86-27.22       c0.01-0.24,0.2-0.44,0.45-0.44c5.42-0.11,10.36-2.24,14.28-6.16c0.13-0.13,0.33-0.17,0.5-0.1c0.17,0.07,0.28,0.24,0.28,0.42       v33.09c0,0.15-0.08,0.3-0.21,0.38C41.66,43.15,41.57,43.17,41.49,43.17z M27.34,16.36c-0.16,12.61,4.44,21.24,13.69,25.65       V10.69C37.18,14.2,32.48,16.16,27.34,16.36z"/><g><path fill="#155647" d="M33.38,26.03c-0.18,2.61,1.14,5.29,3.44,6.79c2.31,1.5,5.54,1.72,8.01,0.45        c2.45-1.26,3.95-3.88,3.92-6.47c-0.03-2.5-1.44-4.95-3.66-6.38c-1.82-1.17-4.15-1.62-6.33-1.26c-1.98,0.32-3.5,2.03-4.39,3.62        C33.81,23.78,33.46,24.89,33.38,26.03z"/><path fill="#fff" d="M42.46,34.01c-1.94,0.28-4.01-0.14-5.63-1.19c-2.31-1.5-3.62-4.19-3.44-6.8        c0.08-1.14,0.43-2.25,0.99-3.25c0.89-1.59,2.42-3.3,4.39-3.62c0.88-0.14,1.78-0.16,2.67-0.04c-0.1,0.01-0.19,0.02-0.28,0.04        c-1.98,0.32-3.5,2.03-4.39,3.62c-0.57,1.01-0.92,2.12-0.99,3.25c-0.18,2.61,1.14,5.29,3.44,6.8        C40.17,33.45,41.3,33.85,42.46,34.01z"/><path fill="#010101" d="M41.27,34.56c-1.65,0-3.31-0.46-4.69-1.36c-2.41-1.57-3.84-4.4-3.65-7.21v0        c0.08-1.17,0.44-2.36,1.05-3.44c0.57-1.02,2.18-3.43,4.72-3.85c2.32-0.38,4.74,0.11,6.65,1.33c2.35,1.51,3.83,4.1,3.86,6.75        c0.04,2.82-1.64,5.58-4.17,6.88C43.9,34.27,42.59,34.56,41.27,34.56z M33.84,26.06L33.84,26.06c-0.17,2.49,1.1,4.99,3.24,6.38        c2.22,1.44,5.25,1.61,7.55,0.43c2.23-1.15,3.71-3.59,3.67-6.07c-0.03-2.36-1.35-4.66-3.45-6c-1.72-1.1-3.91-1.54-6.01-1.2        c-2.15,0.35-3.56,2.49-4.07,3.39C34.23,23.97,33.91,25.02,33.84,26.06z"/><g><path fill="#010101" d="M39.42,29.72C39.42,29.72,39.41,29.72,39.42,29.72c-0.13,0-0.25-0.06-0.34-0.15l-2-2.22       c-0.17-0.19-0.15-0.47,0.03-0.64c0.19-0.17,0.47-0.15,0.64,0.03l1.67,1.86c1.4-1.42,3.17-2.82,5.27-4.16       c0.21-0.14,0.49-0.07,0.63,0.14c0.14,0.21,0.07,0.49-0.14,0.63c-2.18,1.39-4.06,2.91-5.44,4.38       C39.66,29.67,39.54,29.72,39.42,29.72z"/></g></g><g><path fill="#fff" d="M9.96,48.88c2.51-1.24,4.41-3.41,6.24-5.52c1.69-1.95,3.39-3.91,4.83-6.06c1.3-1.94,2.4-4.05,3.03-6.3       c0.21-0.77,0.86-1.4,1.66-1.42c0.55-0.02,1.1,0.21,1.49,0.71c1.99,3.61,1.1,7.95-2.25,12.92h9.49c0.56,0,1.12,0.13,1.57,0.45       c1.55,1.11,1.42,3.54-0.89,4.92c1.23,1.25,1.11,3.86-1.44,4.76c1.56,1.34,1.17,3.82-1.5,4.47c0.78,2.17-0.08,3.38-2.1,3.91       c-0.5,0.13-1.03,0.19-1.55,0.23c-8.66,0.55-13.7-0.61-15.8-3.15L9.96,48.88z"/><path fill="#010101" d="M35.12 49.03H27.7c-.25 0-.45-.2-.45-.45 0-.25.2-.45.45-.45h7.43c.25 0 .45.2.45.45C35.58 48.83 35.38 49.03 35.12 49.03zM33.68 53.79h-7.68c-.25 0-.45-.2-.45-.45 0-.25.2-.45.45-.45h7.68c.25 0 .45.2.45.45C34.14 53.59 33.94 53.79 33.68 53.79zM32.18 58.26h-6.65c-.25 0-.45-.2-.45-.45 0-.25.2-.45.45-.45h6.65c.25 0 .45.2.45.45C32.63 58.06 32.43 58.26 32.18 58.26z"/><path fill="#010101" d="M24.54,62.54c-6.26,0-10.25-1.14-12.16-3.44c-0.04-0.05-0.07-0.11-0.09-0.17L9.52,49      c-0.06-0.21,0.04-0.43,0.24-0.53c2.47-1.21,4.4-3.44,6.1-5.41c1.66-1.91,3.37-3.89,4.8-6.02c1.44-2.14,2.41-4.15,2.97-6.16      c0.28-1.02,1.12-1.73,2.08-1.76c0.74-0.02,1.42,0.3,1.86,0.89c0.01,0.02,0.03,0.04,0.04,0.06c1.93,3.49,1.32,7.75-1.81,12.68      h8.65c0.71,0,1.35,0.19,1.84,0.54c0.81,0.58,1.26,1.49,1.21,2.49c-0.05,1.1-0.66,2.14-1.7,2.9c0.49,0.73,0.67,1.67,0.46,2.57      c-0.22,0.97-0.85,1.76-1.8,2.26c0.52,0.69,0.72,1.55,0.52,2.37c-0.25,1.03-1.05,1.83-2.22,2.24c0.26,0.94,0.21,1.75-0.13,2.41      c-0.41,0.77-1.22,1.32-2.42,1.64c-0.47,0.12-0.99,0.2-1.64,0.24C27.13,62.49,25.79,62.54,24.54,62.54z M13.15,58.58      c2.1,2.44,7.26,3.42,15.36,2.91c0.58-0.04,1.05-0.1,1.46-0.21c0.94-0.25,1.56-0.64,1.85-1.18c0.28-0.53,0.26-1.25-0.06-2.14      c-0.04-0.12-0.03-0.26,0.03-0.37c0.06-0.11,0.17-0.2,0.29-0.23c1.09-0.26,1.82-0.89,2.02-1.71c0.17-0.71-0.09-1.45-0.7-1.97      c-0.12-0.11-0.18-0.27-0.15-0.43c0.03-0.16,0.14-0.29,0.3-0.34c0.98-0.35,1.64-1.01,1.83-1.87c0.18-0.77-0.04-1.61-0.57-2.14      c-0.1-0.1-0.14-0.24-0.13-0.38c0.02-0.14,0.1-0.26,0.22-0.33c1.04-0.62,1.65-1.51,1.69-2.44c0.03-0.69-0.28-1.31-0.84-1.71      c-0.42-0.3-0.94-0.37-1.31-0.37h-9.49c-0.17,0-0.32-0.09-0.4-0.24s-0.07-0.33,0.02-0.47c3.31-4.91,4.07-9.09,2.25-12.41      c-0.27-0.34-0.67-0.52-1.09-0.5c-0.55,0.02-1.06,0.46-1.23,1.09c-0.59,2.11-1.6,4.21-3.09,6.43c-1.46,2.17-3.19,4.17-4.86,6.1      c-1.68,1.95-3.58,4.14-6.05,5.46L13.15,58.58z"/><g><path fill="#155647" d="M12.11,59.61c-0.11,0.47-0.38,0.88-0.77,1.16c-0.36,0.26-0.8,0.38-1.25,0.36c-1.14-0.04-2.28-0.03-3.42-0.1      c-0.81-0.05-1.75-0.16-2.22-0.84c-0.33-0.48-0.36-1.11-0.37-1.7c-0.02-1.67-0.11-7.93-0.13-9.4c-0.01-0.74-0.03-1.49-0.03-2.23      c0-0.39,0-0.77,0.27-1.07c0.67-0.75,2.03-1.08,2.96-1.21c1.17-0.16,2.36-0.04,3.46,0.39c0.47,0.19,0.93,0.44,1.27,0.83      c0.47,0.56,0.62,1.33,0.72,2.08C13.13,51.77,12.97,55.78,12.11,59.61z"/></g><g><path fill="#fff" d="M10.6,61.1c-0.16,0.03-0.34,0.05-0.51,0.04c-1.14-0.04-2.28-0.03-3.43-0.1c-0.81-0.05-1.74-0.16-2.22-0.85      c-0.33-0.48-0.35-1.11-0.36-1.7c-0.02-1.67-0.11-7.93-0.13-9.4c-0.01-0.74-0.03-1.49-0.03-2.24c0-0.39,0-0.77,0.27-1.07      c0.67-0.75,2.03-1.08,2.96-1.21c0.71-0.1,1.43-0.09,2.13,0.03c-0.92,0.15-2.17,0.48-2.79,1.19c-0.26,0.3-0.27,0.69-0.27,1.07      c0,0.75,0.02,1.49,0.03,2.24c0.02,1.46,0.11,7.72,0.13,9.4c0.01,0.59,0.03,1.22,0.37,1.7c0.47,0.69,1.41,0.8,2.22,0.85      C9.51,61.07,10.05,61.08,10.6,61.1z"/></g><g><path fill="#010101" d="M10.18,61.59c-0.04,0-0.07,0-0.11,0c-0.41-0.01-0.83-0.02-1.25-0.03c-0.71-0.01-1.45-0.03-2.19-0.07      c-0.67-0.04-1.93-0.12-2.57-1.04c-0.42-0.61-0.44-1.38-0.45-1.95c-0.01-1.03-0.05-3.79-0.08-6.1l-0.06-3.83      c-0.01-0.57-0.02-1.14-0.02-1.7c0-0.39-0.01-0.94,0.38-1.37c0.74-0.84,2.17-1.2,3.23-1.36c1.27-0.18,2.55-0.03,3.69,0.42      c0.65,0.26,1.11,0.57,1.44,0.96c0.56,0.67,0.72,1.55,0.83,2.31c0.55,3.93,0.38,8.05-0.49,11.9c0,0,0,0,0,0      c-0.13,0.57-0.47,1.08-0.95,1.42C11.2,61.44,10.7,61.59,10.18,61.59z M8.14,44.96c-0.31,0-0.62,0.02-0.93,0.07      c-1.29,0.19-2.25,0.57-2.68,1.06c-0.15,0.17-0.16,0.41-0.15,0.77c0,0.57,0.01,1.13,0.02,1.69l0.06,3.84      c0.03,2.32,0.07,5.07,0.08,6.1c0.01,0.58,0.04,1.09,0.28,1.45c0.36,0.51,1.16,0.61,1.88,0.65c0.71,0.05,1.44,0.06,2.15,0.07      c0.42,0.01,0.84,0.02,1.26,0.03c0.36,0.02,0.69-0.08,0.96-0.28c0.3-0.22,0.51-0.53,0.6-0.89c0.84-3.75,1.01-7.75,0.48-11.58      c-0.09-0.64-0.21-1.36-0.62-1.85c-0.23-0.27-0.58-0.5-1.09-0.7C9.72,45.1,8.94,44.96,8.14,44.96z M12.11,59.61L12.11,59.61      L12.11,59.61z"/></g></g><g><path fill="#010101" d="M10.88 31.72c-.15 0-.29-.07-.38-.2-.12-.18-.23-.36-.32-.53-.12-.22-.04-.5.18-.62.22-.12.5-.04.62.18.08.15.18.31.28.47.14.21.08.49-.13.63C11.05 31.69 10.97 31.72 10.88 31.72zM15.07 35.98c-.1 0-.19-.03-.28-.09-.06-.05-1.49-1.15-2.82-2.57-.17-.18-.16-.47.02-.64.18-.17.47-.16.64.02 1.29 1.36 2.7 2.46 2.72 2.47.2.15.24.44.08.64C15.34 35.91 15.2 35.98 15.07 35.98zM17.58 33.09c-.21 0-.39-.14-.44-.35-.32-1.35-.55-2.73-.68-4.11-.02-.25.16-.47.41-.5.25-.02.47.16.5.41.13 1.34.35 2.68.66 3.99.06.24-.09.49-.34.55C17.65 33.09 17.61 33.09 17.58 33.09zM12.63 38.6c-.04 0-.08-.01-.12-.02l-5.04-1.41c-.24-.07-.38-.32-.32-.56.07-.24.32-.38.56-.32l5.04 1.41c.24.07.38.32.32.56C13.01 38.47 12.83 38.6 12.63 38.6z"/></g><g><path fill="#010101" d="M58.64 52.28c-.16 0-.32-.08-.4-.24-.09-.16-.18-.31-.29-.47-.14-.21-.08-.49.13-.63.21-.14.49-.08.63.13.12.18.23.36.32.53.12.22.04.5-.18.62C58.79 52.26 58.72 52.28 58.64 52.28zM56.92 50.04c-.12 0-.24-.05-.33-.14-1.29-1.36-2.7-2.46-2.72-2.47-.2-.15-.24-.44-.08-.64.15-.2.44-.24.64-.08.06.05 1.49 1.15 2.82 2.57.17.18.16.47-.02.64C57.14 50 57.03 50.04 56.92 50.04zM52.31 54.46c-.23 0-.43-.18-.45-.41-.13-1.34-.35-2.69-.66-3.99-.06-.24.09-.49.34-.55.24-.06.49.09.55.34.32 1.35.55 2.73.68 4.11.02.25-.16.47-.41.5C52.34 54.46 52.32 54.46 52.31 54.46zM61.63 46.3c-.04 0-.08-.01-.12-.02l-5.04-1.41c-.24-.07-.38-.32-.32-.56.07-.24.32-.38.56-.32l5.04 1.41c.24.07.38.32.32.56C62.01 46.17 61.83 46.3 61.63 46.3z"/></g></svg>