<svg xmlns="http://www.w3.org/2000/svg" enable-background="new 0 0 66 66" viewBox="0 0 66 66"
    width="66" height="66">
    <path fill="#CEFFAE"
        d="M48.09,25.99c-1.57,3.48-4.48,6.4-7.98,8.03c-3.83,1.78-7.78,1.77-11.75,0.6       c-3.96-1.17-7.51-4.19-9.37-7.79c-1.97-4.15-2.49-9.09-0.51-13.37c1.98-4.28,5.93-8.12,10.59-9.11c4.07-0.86,8.44-0.43,12,1.5       c3.55,1.94,6.44,5.52,7.75,9.31C50.03,18.67,49.66,22.51,48.09,25.99z" />
    <path fill="#fff"
        d="M35.01,35.37c-2.2,0.19-4.43-0.1-6.66-0.76c-3.96-1.17-7.51-4.19-9.36-7.79       c-1.98-4.14-2.49-9.09-0.51-13.37c1.98-4.28,5.93-8.12,10.59-9.11c1.76-0.37,3.58-0.5,5.36-0.38c-0.9,0.06-1.81,0.19-2.69,0.38       c-4.66,0.99-8.61,4.83-10.59,9.11c-1.99,4.28-1.46,9.23,0.51,13.37c1.86,3.6,5.4,6.62,9.37,7.79       C32.36,35,33.69,35.26,35.01,35.37z" />
    <path fill="#fff"
        d="M43.6,24.04c-1.09,2.41-3.1,4.44-5.54,5.57c-2.66,1.23-5.4,1.23-8.15,0.42c-2.75-0.81-5.21-2.91-6.5-5.41       c-1.37-2.87-1.73-6.3-0.35-9.28c1.37-2.97,4.12-5.64,7.35-6.32c2.82-0.6,5.86-0.3,8.33,1.04c2.46,1.35,4.47,3.83,5.38,6.46       C44.94,18.97,44.69,21.63,43.6,24.04z" />
    <path fill="#155647"
        d="M37.69,20.88c-0.16,0.16-0.23,0.39-0.19,0.62l0.73,3.76c0.11,0.57-0.48,1.01-0.99,0.75l-3.54-1.82       c-0.2-0.1-0.43-0.1-0.63,0L29.53,26c-0.51,0.26-1.1-0.18-0.99-0.75l0.73-3.76c0.04-0.22-0.03-0.45-0.19-0.62l-2.88-2.94       c-0.39-0.4-0.17-1.07,0.38-1.16l3.85-0.66c0.21-0.04,0.4-0.17,0.5-0.36l1.84-3.6c0.26-0.5,0.97-0.5,1.23,0l1.84,3.6       c0.1,0.19,0.28,0.33,0.5,0.36l3.85,0.66c0.55,0.09,0.77,0.77,0.38,1.16L37.69,20.88z" />
    <path fill="#fff"
        d="M30.85,19.97c0.19,0.2,0.28,0.47,0.23,0.75l-0.88,4.54c-0.03,0.14-0.02,0.27,0.01,0.39L29.53,26       c-0.51,0.27-1.1-0.18-0.99-0.75l0.73-3.76c0.04-0.23-0.03-0.45-0.19-0.61l-2.88-2.94c-0.39-0.4-0.17-1.07,0.38-1.16l0.98-0.17       L30.85,19.97z" />
    <path fill="#010101"
        d="M33.7,35.89c-1.75,0-3.57-0.28-5.47-0.84c-4.01-1.18-7.7-4.25-9.64-8.02c-2.22-4.67-2.41-9.68-0.52-13.77       c2.23-4.82,6.41-8.41,10.91-9.36c4.33-0.92,8.82-0.35,12.31,1.54c3.54,1.93,6.59,5.59,7.96,9.56c1.2,3.48,0.94,7.45-0.74,11.17       c-1.61,3.57-4.6,6.58-8.21,8.25C38.19,35.4,36,35.89,33.7,35.89z M33.08,4.38c-1.3,0-2.61,0.14-3.92,0.41       c-4.16,0.88-8.19,4.35-10.27,8.85c-1.78,3.84-1.59,8.57,0.51,12.98c1.83,3.54,5.31,6.44,9.09,7.55       c4.19,1.24,7.93,1.05,11.43-0.58c3.41-1.58,6.24-4.42,7.76-7.8c1.59-3.51,1.84-7.24,0.71-10.5c-1.3-3.77-4.19-7.24-7.54-9.06       C38.59,5.01,35.88,4.38,33.08,4.38z" />
    <path fill="#010101"
        d="M33.59,31.04c-1.23,0-2.51-0.19-3.82-0.58l0,0c-2.82-0.83-5.41-2.99-6.78-5.64       c-1.56-3.28-1.69-6.8-0.36-9.68c1.57-3.38,4.51-5.9,7.67-6.57c3.04-0.64,6.19-0.25,8.64,1.09c2.52,1.37,4.61,3.88,5.59,6.71       c0.85,2.45,0.66,5.24-0.52,7.85c-1.13,2.51-3.23,4.62-5.76,5.79C36.78,30.7,35.22,31.04,33.59,31.04z M33.18,9.19       c-0.89,0-1.79,0.09-2.69,0.28c-2.84,0.6-5.6,2.98-7.03,6.07c-1.22,2.63-1.09,5.87,0.35,8.89c1.25,2.42,3.63,4.41,6.22,5.17l0,0       c2.87,0.85,5.44,0.72,7.83-0.39c2.34-1.08,4.27-3.03,5.32-5.34c1.09-2.4,1.26-4.95,0.49-7.18c-0.89-2.58-2.87-4.96-5.17-6.21       C36.96,9.62,35.1,9.19,33.18,9.19z" />
    <g>
        <path fill="#010101"
            d="M37.55,26.53c-0.18,0-0.36-0.04-0.52-0.13l-3.54-1.82c-0.07-0.03-0.15-0.03-0.22,0l-3.54,1.82      c-0.39,0.2-0.86,0.16-1.21-0.1c-0.35-0.27-0.52-0.7-0.44-1.13l0.73-3.76c0.01-0.08-0.01-0.15-0.06-0.21l-2.88-2.94      c-0.3-0.3-0.4-0.75-0.27-1.16c0.13-0.41,0.48-0.7,0.9-0.77l3.85-0.66c0.07-0.01,0.14-0.06,0.17-0.13l1.84-3.59      c0.2-0.38,0.59-0.62,1.02-0.62c0.43,0,0.82,0.24,1.02,0.62l1.84,3.6c0.03,0.06,0.1,0.11,0.17,0.12l3.85,0.66      c0.42,0.07,0.76,0.37,0.9,0.77c0.13,0.41,0.03,0.85-0.27,1.16l-2.88,2.94c0,0,0,0,0,0c-0.06,0.06-0.08,0.14-0.07,0.21l0.73,3.76      c0.08,0.43-0.08,0.87-0.44,1.13C38.04,26.46,37.8,26.53,37.55,26.53z M33.38,23.65c0.18,0,0.36,0.04,0.52,0.12l3.54,1.82      c0.12,0.06,0.21,0.01,0.25-0.02c0.04-0.03,0.12-0.1,0.09-0.23l-0.73-3.76c-0.07-0.37,0.04-0.75,0.31-1.02l2.88-2.94      c0.09-0.09,0.07-0.2,0.05-0.24c-0.01-0.04-0.06-0.14-0.18-0.16l-3.85-0.66c-0.36-0.06-0.66-0.28-0.82-0.6l-1.84-3.6      c-0.06-0.11-0.17-0.13-0.21-0.13c-0.04,0-0.15,0.01-0.21,0.13l-1.84,3.59c-0.17,0.32-0.47,0.54-0.83,0.6l-3.85,0.66      c-0.13,0.02-0.17,0.12-0.19,0.16c-0.01,0.04-0.03,0.15,0.06,0.24l2.88,2.94c0.26,0.27,0.38,0.65,0.31,1.02l-0.73,3.76      c-0.03,0.13,0.05,0.21,0.09,0.23c0.04,0.03,0.13,0.08,0.25,0.02l3.54-1.82C33.02,23.7,33.2,23.65,33.38,23.65z M37.69,20.88      L37.69,20.88L37.69,20.88z" />
    </g>
    <g>
        <path fill="#155647"
            d="M3.92,62.08c0.42-4.87,0.33-8.37,0.21-14.15l15.76,0.28c0.21-5.45,0.3-8.3,0.15-12.78       c9.77,0.12,19.18,0,28.14-0.45v11c4.42,0.4,9.07,0.47,13.9,0.29c-0.32,4.79-0.42,9.48-0.41,15.81" />
        <path fill="#fff"
            d="M7.11 47.98c.12 5.77.2 9.24-.21 14.1H3.92c.42-4.88.34-8.37.21-14.15L7.11 47.98zM23.02 35.46c.14 4.47.05 7.31-.15 12.75l-2.98-.05c.2-5.43.3-8.26.15-12.73C21.04 35.44 22.04 35.45 23.02 35.46z" />
        <path fill="#010101"
            d="M3.92,62.54c-0.01,0-0.03,0-0.04,0c-0.25-0.02-0.44-0.24-0.41-0.49c0.41-4.78,0.34-8.19,0.22-13.84       l-0.01-0.26c0-0.12,0.05-0.24,0.13-0.33c0.09-0.09,0.21-0.14,0.33-0.13l15.31,0.27c0.19-4.99,0.28-7.91,0.14-12.3       c0-0.12,0.04-0.24,0.13-0.33c0.09-0.09,0.21-0.14,0.33-0.14c10.28,0.13,19.48-0.02,28.11-0.45c0.13,0,0.25,0.04,0.34,0.12       c0.09,0.09,0.14,0.2,0.14,0.33v10.59c4.09,0.35,8.6,0.43,13.42,0.25c0.13-0.01,0.25,0.05,0.34,0.14       c0.09,0.09,0.14,0.22,0.13,0.35c-0.3,4.47-0.42,9.04-0.41,15.78c0,0.25-0.2,0.45-0.45,0.45c0,0,0,0,0,0       c-0.25,0-0.45-0.2-0.45-0.45c-0.01-6.51,0.1-11.01,0.38-15.34c-4.84,0.16-9.36,0.06-13.45-0.31c-0.23-0.02-0.41-0.22-0.41-0.45       V35.45c-8.38,0.41-17.3,0.56-27.22,0.44c0.12,4.29,0.02,7.23-0.17,12.34c-0.01,0.25-0.23,0.44-0.46,0.44L4.6,48.39       c0.12,5.56,0.18,8.96-0.22,13.73C4.35,62.36,4.15,62.54,3.92,62.54z" />
    </g>
    <g>
        <path fill="#010101"
            d="M56.65 9.26c-.2 0-.39-.14-.44-.34-.06-.24.08-.49.33-.55.21-.05.41-.1.61-.13.25-.04.48.12.53.37.04.25-.12.48-.37.53-.17.03-.35.07-.54.12C56.72 9.26 56.69 9.26 56.65 9.26zM51.26 11.84c-.15 0-.29-.07-.38-.2-.14-.21-.08-.49.13-.63.06-.04 1.57-1.03 3.34-1.84.23-.1.5 0 .6.23.1.23 0 .5-.23.6-1.71.78-3.21 1.76-3.22 1.77C51.43 11.82 51.35 11.84 51.26 11.84zM57.2 15.82c-.03 0-.07 0-.11-.01-1.31-.31-2.65-.54-3.98-.67-.25-.02-.43-.25-.41-.5s.24-.43.5-.41c1.37.14 2.76.37 4.1.69.24.06.4.3.34.55C57.6 15.68 57.41 15.82 57.2 15.82zM49.58 8.68c-.09 0-.18-.03-.26-.08-.21-.14-.26-.43-.12-.63l2.98-4.31c.14-.21.43-.26.63-.12.21.14.26.43.12.63l-2.98 4.31C49.87 8.61 49.72 8.68 49.58 8.68z" />
    </g>
    <g>
        <path fill="#010101"
            d="M9.35 9.26c-.04 0-.08 0-.11-.01C9.05 9.2 8.88 9.16 8.7 9.13 8.45 9.08 8.29 8.85 8.33 8.6c.04-.25.28-.41.53-.37.2.03.4.08.61.13.24.06.39.31.33.55C9.74 9.12 9.55 9.26 9.35 9.26zM14.74 11.84c-.09 0-.17-.02-.25-.07-.01-.01-1.51-.99-3.22-1.77-.23-.1-.33-.37-.23-.6.1-.23.37-.33.6-.23 1.77.81 3.28 1.8 3.34 1.84.21.14.27.42.13.63C15.03 11.77 14.89 11.84 14.74 11.84zM8.8 15.82c-.21 0-.39-.14-.44-.35-.06-.24.09-.49.34-.55 1.35-.32 2.73-.55 4.1-.69.25-.03.47.16.5.41.02.25-.16.47-.41.5-1.33.13-2.67.36-3.98.67C8.87 15.82 8.83 15.82 8.8 15.82zM16.42 8.68c-.14 0-.29-.07-.37-.2l-2.98-4.31c-.14-.21-.09-.49.12-.63.21-.14.49-.09.63.12l2.98 4.31c.14.21.09.49-.12.63C16.6 8.66 16.51 8.68 16.42 8.68z" />
    </g>
    <g>
        <path fill="#CEFFAE"
            d="M37.11,57.81c-1.04,0.35-2.12,0.55-3.21,0.49c-1.12-0.05-2.22-0.32-3.22-0.83        c-2.39-1.2-4.02-3.78-4.08-6.46c-0.06-2.68,1.38-5.66,3.8-6.82c2.36-1.13,5.19-1.2,7.6-0.19c2.17,0.91,3.55,3.26,3.98,5.56        C42.67,54.01,40.59,56.64,37.11,57.81z" />
        <path fill="#fff"
            d="M33.17,57.48c0.72,0.37,1.5,0.61,2.3,0.73c-0.52,0.09-1.05,0.12-1.58,0.09        c-1.12-0.05-2.22-0.32-3.22-0.82c-2.39-1.2-4.02-3.79-4.08-6.46c-0.06-2.68,1.39-5.66,3.8-6.82c1.63-0.78,3.49-1.05,5.27-0.81        c-0.96,0.12-1.9,0.4-2.78,0.81c-2.41,1.15-3.86,4.14-3.79,6.82C29.16,53.69,30.78,56.27,33.17,57.48z" />
        <path fill="#010101"
            d="M34.26,58.76c-0.13,0-0.26,0-0.39-0.01c-1.21-0.06-2.38-0.36-3.4-0.87c-2.52-1.27-4.26-4.02-4.33-6.85        c-0.07-3.04,1.63-6.08,4.06-7.24c2.47-1.18,5.45-1.26,7.97-0.2c2.53,1.06,3.85,3.75,4.25,5.9c0.67,4.29-1.16,7.39-5.17,8.74        C36.22,58.59,35.22,58.76,34.26,58.76z M34.41,43.76c-1.32,0-2.63,0.29-3.82,0.85c-2.12,1.01-3.6,3.7-3.54,6.39        c0.06,2.5,1.6,4.94,3.83,6.06c0.9,0.46,1.95,0.73,3.03,0.78c0.96,0.05,1.99-0.11,3.05-0.47c0,0,0,0,0,0        c3.59-1.21,5.17-3.88,4.56-7.73c-0.35-1.91-1.51-4.29-3.71-5.21C36.74,43.99,35.58,43.76,34.41,43.76z" />
        <g>
            <path fill="#010101"
                d="M34.43,54.37c-0.03,0-0.06,0-0.09-0.01c-0.25-0.05-0.41-0.29-0.36-0.53c0.43-2.18,0.51-4.39,0.24-6.58       l-1.54,1.51c-0.18,0.18-0.47,0.17-0.64-0.01c-0.18-0.18-0.17-0.47,0.01-0.64l2.18-2.14c0.12-0.12,0.3-0.16,0.46-0.11       c0.16,0.05,0.28,0.19,0.31,0.36c0.43,2.58,0.39,5.2-0.12,7.78C34.83,54.22,34.64,54.37,34.43,54.37z" />
        </g>
        <g>
            <path fill="#010101"
                d="M36.4,54.37h-4.04c-0.25,0-0.45-0.2-0.45-0.45c0-0.25,0.2-0.45,0.45-0.45h4.04c0.25,0,0.45,0.2,0.45,0.45      C36.86,54.16,36.65,54.37,36.4,54.37z" />
        </g>
    </g>
    <g>
        <path fill="#010101"
            d="M57.44,60.35C57.44,60.35,57.44,60.35,57.44,60.35c-0.25,0-0.46-0.2-0.45-0.46c0.01-2.65,0.04-4.95,0.1-7.01    c0.01-0.25,0.22-0.44,0.47-0.44c0.25,0.01,0.45,0.22,0.44,0.47c-0.06,2.06-0.09,4.35-0.1,6.99C57.9,60.15,57.69,60.35,57.44,60.35    z" />
    </g>
    <g>
        <path fill="#010101"
            d="M57.63,50.82c-0.01,0-0.01,0-0.02,0c-0.25-0.01-0.45-0.22-0.43-0.47c0.02-0.49,0.04-0.98,0.07-1.46    c0.01-0.25,0.23-0.44,0.48-0.43c0.25,0.01,0.44,0.23,0.43,0.48c-0.02,0.48-0.05,0.97-0.07,1.45    C58.08,50.63,57.87,50.82,57.63,50.82z" />
    </g>
</svg>