<svg xmlns="http://www.w3.org/2000/svg" viewBox="0 0 512 512" width="512" height="512">
    <path fill="#9FFB83"
        d="m214.71,307.69c-23.12-2.64-46.66-1.63-69.47,2.99-1.39.28-2.81.59-3.97,1.41-1.56,1.1-2.4,2.94-3.17,4.69-16.07,36.84-30.16,74.53-42.19,112.88,26.26-10,52.53-19.99,78.79-29.99,2.38-.91,4.85-1.83,7.39-1.71,2.47.12,4.77,1.2,7,2.27,19.06,9.12,38.13,18.23,57.19,27.35,19.22-7.15,38.44-14.3,57.66-21.44,4.49-1.67,9.11-3.36,13.9-3.35,3.79.01,7.48,1.1,11.11,2.17,29.04,8.59,58.08,17.19,87.13,25.78-18.22-33.94-32.1-70.21-41.19-107.65-.89-3.68-1.96-7.71-5.07-9.86-2.76-1.91-6.38-1.82-9.73-1.63-21.76,1.24-43.47,3.57-65,6.99" />
    <path fill="#155647"
        d="m251.77,359.11c-16.67-25.35-33.34-50.71-50-76.06-11.79-17.93-23.64-35.99-31.98-55.76-8.33-19.77-13.03-41.58-9.84-62.8,4.86-32.29,28.76-60.6,59.25-72.31,30.48-11.7,66.36-7.05,93.78,10.69,14.43,9.33,26.77,22.27,33.97,37.88,11.11,24.08,9.13,52.56.4,77.59-8.74,25.04-23.69,47.35-38.49,69.36-17.92,26.66-35.85,53.32-53.77,79.98" />
    <path fill="#fff"
        d="m252.89,154.59c-9.63-.16-17.53,6.64-23.69,14.04-6.17,7.4-6.22,18.76-6.16,28.39.1,16.9,20.52,28.23,30.73,29.52,7.74.98,15.7-1.97,21.59-7.09,5.89-5.12,9.83-12.23,11.99-19.73,1.42-4.91,2.12-10.07,1.64-15.16-.82-8.64-5.18-16.9-11.86-22.45-6.68-5.55-15.6-8.31-24.25-7.52" />
    <path fill="none" stroke="#fff" stroke-linecap="round" stroke-linejoin="round"
        stroke-width="5.66" d="m196.91,133.04c-15.85,18.68-20.11,46.45-10.58,69.03" />
    <path fill="none" stroke="#000" stroke-linecap="round" stroke-linejoin="round"
        stroke-width="5.66"
        d="M192.28 222.86c1.01 2.01 2.01 4.02 3.02 6.03M321.94 86.54c-.67-5.7-2.08-15.17-2.75-20.87M340.13 89.81c2.68-3.69 12.3-15.04 14.98-18.73M347.21 104.67c4.93-2.01 15.79-7.21 20.72-9.22M117.37 269.42c3.86 1.61 4.7 7.73 1.41 10.31s-9.03.34-9.69-3.79 4.18-8.24 8.28-6.52zM405.54 174.39c3.86 1.61 4.7 7.73 1.41 10.31-3.29 2.59-9.03.34-9.69-3.79s4.18-8.24 8.28-6.52zM323.01 434.91c3.86 1.61 4.7 7.73 1.41 10.31-3.29 2.59-9.03.34-9.69-3.79-.66-4.13 4.18-8.24 8.28-6.52z" />
</svg>