<svg xmlns="http://www.w3.org/2000/svg" viewBox="0 0 512 512" width="512" height="512">
    <path fill="#9FFB83"
        d="m270.07,184.2c11.8-2.26,122.49-3.71,130.28,5.43,5.08,5.97,5.47,14.5,5.6,22.34.71,40.97,1.42,81.94,2.13,122.92.1,5.53.15,11.26-2.13,16.3-6.67,14.72-26.97,14.58-42.83,17.67-3.16.62-6.48,1.57-8.61,3.98-2.26,2.57-2.7,6.22-3.04,9.63-1.3,13.27-2.61,26.53-3.91,39.8-10.9-9.79-21.81-19.58-32.71-29.36-9.05-8.13-18.32-16.39-29.48-21.23-11.16-4.83-96.78-.75-107.08,5.71" />
    <path fill="#155647"
        d="m331.2,141.02c-34.59-.7-64.31-1.63-98.9-2.33-39.9-.8-80.3-1.56-119.13,7.62-7.77,1.84-16.01,4.44-20.79,10.84-3.59,4.82-4.61,11.03-5.47,16.97-6.25,43.4-9.33,87.26-9.22,131.1.02,7.04.2,14.41,3.62,20.56,5.22,9.39,16.83,13.54,27.57,13.46,10.74-.08,21.11-3.57,31.61-5.83,1.77-.38,3.7-.71,5.34.07,3.07,1.47,3.25,5.7,2.99,9.09-1.98,25.46-3.96,50.91-5.94,76.37,27.13-21.11,54.25-42.22,81.38-63.33,4.55-3.54,9.18-7.13,14.56-9.19,6.24-2.39,13.07-2.57,19.76-2.73,25.28-.58,50.56-1.16,75.84-1.74,3.81-.09,7.9-.27,10.91-2.6,3.72-2.87,4.6-8.04,5.14-12.71,5.04-43.87,4.08-88.18,3.11-132.33-.22-10.21-.48-20.59-3.56-30.32-3.09-9.74-9.45-18.92-18.82-22.99" />
    <path fill="none" stroke="#fff" stroke-linecap="round" stroke-linejoin="round"
        stroke-width="5.66"
        d="M146.91 205.21c24.46 1.89 49.06 1.88 73.52-.03 3.72-.29 7.51-.62 11.17.16M144.04 245.03c46.79-.64 93.57-1.28 140.36-1.93M146.19 282.53c45.76-3.03 91.64-4.22 137.49-3.59" />
    <path fill="none" stroke="#000" stroke-linecap="round" stroke-linejoin="round"
        stroke-width="5.66"
        d="M80.05 372.06c3.73 1.56 4.54 7.46 1.36 9.96s-8.73.33-9.36-3.66c-.64-3.99 4.03-7.95 8-6.3zM216.58 90.13c3.73 1.56 4.54 7.46 1.36 9.96-3.18 2.5-8.73.33-9.36-3.66-.64-3.99 4.03-7.95 8-6.3zM436.68 277.21c3.73 1.56 4.54 7.46 1.36 9.96s-8.73.33-9.36-3.66c-.64-3.99 4.03-7.95 8-6.3z" />
    <path fill="none" stroke="#000" stroke-linecap="round" stroke-linejoin="round"
        stroke-width="5.66"
        d="M80.05 372.06c3.73 1.56 4.54 7.46 1.36 9.96s-8.73.33-9.36-3.66c-.64-3.99 4.03-7.95 8-6.3zM216.58 90.13c3.73 1.56 4.54 7.46 1.36 9.96-3.18 2.5-8.73.33-9.36-3.66-.64-3.99 4.03-7.95 8-6.3zM436.68 277.21c3.73 1.56 4.54 7.46 1.36 9.96s-8.73.33-9.36-3.66c-.64-3.99 4.03-7.95 8-6.3z" />
    <path fill="none" stroke="#000" stroke-miterlimit="10" stroke-width="5.66"
        d="M325.15 123.21c1.15-5.11 2.31-22.66 3.46-27.76M349.92 127.68c4.61-4.28 19.74-17.76 24.35-22.04M360.31 145.06c7.41-1.98 20.5-6.03 27.91-8" />
</svg>