<svg xmlns="http://www.w3.org/2000/svg" enable-background="new 0 0 66 66" viewBox="0 0 66 66" width="66" height="66"><path fill="#e7ebef" d="M43.93,44.79c0.31,0.1,0.65,0.04,0.94-0.09s0.55-0.33,0.8-0.53c2.1-1.68,4.12-3.47,6.04-5.36     c0.28-0.27,0.56-0.55,0.89-0.75c0.33-0.2,0.73-0.32,1.12-0.25c0.68,0.13,1.13,0.86,1.14,1.56c0.01,0.7-0.32,1.35-0.7,1.94     c-1.06,1.63-2.54,2.93-4,4.21L43.93,44.79z"/><path fill="#010101" d="M50.16,45.98c-0.02,0-0.04,0-0.05,0l-5.77-0.67c-0.19,0.01-0.37-0.02-0.54-0.07     c-0.23-0.07-0.36-0.31-0.31-0.55c0.05-0.23,0.28-0.39,0.51-0.37l0.37,0.04c0.1-0.01,0.22-0.04,0.33-0.09     c0.25-0.11,0.49-0.3,0.7-0.47c2.08-1.67,4.1-3.46,6.01-5.33c0.31-0.3,0.61-0.59,0.98-0.82c0.47-0.29,0.99-0.39,1.45-0.3     c0.97,0.19,1.5,1.18,1.52,2.01c0.01,0.87-0.41,1.63-0.78,2.2c-1.1,1.69-2.62,3.02-4.08,4.3C50.38,45.94,50.27,45.98,50.16,45.98z      M45.94,44.55L50,45.02c1.37-1.2,2.77-2.44,3.76-3.97c0.44-0.67,0.63-1.19,0.62-1.68c-0.01-0.46-0.3-1.02-0.76-1.11     c-0.23-0.05-0.51,0.02-0.78,0.19c-0.28,0.17-0.52,0.41-0.78,0.66c-1.95,1.91-3.99,3.73-6.1,5.41     C45.96,44.54,45.95,44.55,45.94,44.55z"/><path fill="#e7ebef" d="M48.45,44.69c0.31,0.1,0.65,0.04,0.94-0.09s0.55-0.33,0.8-0.53c2.1-1.68,4.12-3.47,6.04-5.36     c0.28-0.27,0.56-0.55,0.89-0.75s0.73-0.32,1.11-0.25c0.68,0.13,1.13,0.86,1.14,1.56c0.01,0.7-0.32,1.35-0.7,1.94     c-1.06,1.63-2.54,2.93-4,4.21L48.45,44.69z"/><path fill="#010101" d="M54.68,45.88c-0.02,0-0.04,0-0.05,0l-5.77-0.67c-0.19,0.01-0.37-0.02-0.54-0.07     c-0.23-0.07-0.36-0.31-0.31-0.55c0.05-0.24,0.27-0.39,0.51-0.37l0.37,0.04c0.1-0.01,0.22-0.04,0.33-0.09     c0.25-0.11,0.49-0.3,0.7-0.47c2.08-1.67,4.11-3.46,6.01-5.33c0.31-0.3,0.61-0.59,0.98-0.82c0.47-0.29,0.99-0.39,1.45-0.3     c0.97,0.19,1.5,1.18,1.52,2.01c0.01,0.87-0.41,1.63-0.78,2.2c-1.1,1.69-2.62,3.02-4.08,4.3C54.9,45.84,54.79,45.88,54.68,45.88z      M50.46,44.45l4.06,0.47c1.37-1.2,2.77-2.44,3.76-3.97c0.44-0.67,0.63-1.19,0.62-1.68c-0.01-0.46-0.3-1.02-0.76-1.11     c-0.23-0.05-0.51,0.02-0.78,0.19c-0.28,0.17-0.52,0.41-0.78,0.66c-1.95,1.91-3.99,3.73-6.1,5.42     C50.48,44.44,50.47,44.44,50.46,44.45z"/><path fill="#fff" d="M62.65,43.39c-0.24,0.57-0.58,1.09-0.97,1.56c-0.44,0.52-0.96,0.98-1.5,1.39        c-7.14,5.41-15.14,6.18-23.6,4.52c-6.73-1.2-12.42,0.3-16.9,4.94l-9.69-9.7c2.39-2.78,5.15-5.75,8.34-7.55        c4.38-2.47,9.45-2.94,14.4-3.81c2.48-0.44,4.96-0.87,7.44-1.3c1.12-0.2,2.3-0.39,3.36,0.13c0.53,0.26,0.96,0.72,1.12,1.28        c0.28,0.96-0.33,1.65-0.93,2.23c-3.15,3.01-7.39,4.85-11.74,5.09c3.45,0.85,6.76,1.6,9.7,2.07c2.47,0.4,4.97,0.52,7.46,0.3        c3.48-0.3,6.83-1.22,10.15-3.96c0.37-0.31,0.78-0.57,1.22-0.78c0.37-0.18,0.8-0.34,1.2-0.24c0.46,0.1,0.8,0.51,0.99,0.93        C63.11,41.41,63.03,42.48,62.65,43.39z"/><path fill="#010101" d="M19.68,56.27c-0.12,0-0.24-0.05-0.33-0.14l-9.69-9.69c-0.17-0.17-0.18-0.45-0.02-0.64        c2.51-2.91,5.27-5.85,8.46-7.66c3.73-2.1,7.99-2.79,12.1-3.45c0.82-0.13,1.63-0.26,2.45-0.41l7.44-1.3        c1.09-0.19,2.44-0.43,3.65,0.17c0.68,0.33,1.18,0.91,1.37,1.58c0.38,1.33-0.59,2.25-1.06,2.7c-2.59,2.48-5.95,4.19-9.48,4.89        c2.87,0.68,5.19,1.15,7.18,1.47c2.53,0.41,5,0.51,7.34,0.3c4.05-0.36,7.1-1.55,9.89-3.86c0.4-0.33,0.84-0.61,1.31-0.84        c0.41-0.2,0.95-0.41,1.51-0.28c0.55,0.12,1.02,0.56,1.32,1.2c0.43,0.95,0.42,2.14-0.05,3.25c-0.24,0.57-0.58,1.12-1.05,1.68        c-0.41,0.5-0.93,0.97-1.58,1.46c-6.57,4.98-14.41,6.49-23.97,4.61c-6.69-1.2-12.23,0.41-16.48,4.8        C19.93,56.22,19.81,56.27,19.68,56.27C19.68,56.27,19.68,56.27,19.68,56.27z M10.62,46.09l9.05,9.05        c4.43-4.37,10.14-5.96,16.99-4.73c9.29,1.82,16.88,0.37,23.23-4.44c0.59-0.45,1.05-0.88,1.42-1.32        c0.41-0.49,0.7-0.96,0.9-1.44c0.36-0.88,0.38-1.79,0.06-2.5c-0.17-0.36-0.42-0.62-0.67-0.67c-0.28-0.06-0.63,0.08-0.9,0.21        c-0.41,0.2-0.78,0.44-1.12,0.71c-2.95,2.44-6.16,3.7-10.41,4.07c-2.42,0.21-4.97,0.11-7.57-0.31        c-2.56-0.41-5.66-1.08-9.73-2.08c-0.23-0.06-0.38-0.27-0.35-0.5c0.02-0.23,0.21-0.41,0.44-0.42        c4.22-0.23,8.39-2.04,11.44-4.96c0.65-0.62,0.99-1.11,0.81-1.77c-0.12-0.41-0.44-0.78-0.88-0.99        c-0.94-0.46-2.08-0.26-3.08-0.09l-7.44,1.3c-0.82,0.14-1.64,0.28-2.46,0.41c-4.03,0.65-8.21,1.32-11.79,3.34        C15.6,40.63,13,43.35,10.62,46.09z"/><path fill="#155647" d="M21.17,57.96l-4.53,4.53c-0.62,0.62-1.62,0.64-2.27,0.05C10.93,59.37,6.3,54.71,3.39,51.1       c-0.76-0.94-0.33-2.47,1.21-2.71c1-0.15,1.86-0.87,1.97-1.88c0.2-1.79,2.05-2.16,2.93-1.14c3.41,3.95,7.36,7.66,11.53,10.78       C21.62,56.59,21.69,57.44,21.17,57.96z"/><path fill="#fff" d="M21.5,56.49c-0.1-0.08-0.22-0.15-0.34-0.23c-2.77-1.91-10.73-6.73-16.69-3.88       c-0.01-0.01-0.01-0.01-0.02-0.02c-0.37-0.43-0.72-0.86-1.05-1.26c-0.76-0.94-0.33-2.47,1.21-2.72c1-0.15,1.86-0.87,1.97-1.88       c0.2-1.79,2.05-2.16,2.93-1.14c0,0,0,0,0,0c0.85,0.99,1.73,1.96,2.65,2.91c0.17,0.18,0.34,0.35,0.51,0.53       c0.88,0.89,1.78,1.77,2.7,2.61c0.2,0.19,0.39,0.37,0.59,0.54c0.51,0.46,1.03,0.91,1.55,1.36c0.26,0.22,0.52,0.44,0.79,0.66       c0.26,0.22,0.52,0.43,0.78,0.64c0,0,0.01,0.01,0.01,0.01c0.27,0.21,0.53,0.42,0.8,0.63c0.27,0.21,0.53,0.42,0.81,0.62       C20.96,56.09,21.23,56.29,21.5,56.49z"/><g><path fill="#010101" d="M15.48,63.45c-0.51,0-1.02-0.19-1.43-0.56c-3.17-2.92-7.96-7.69-11.03-11.5c-0.47-0.58-0.6-1.37-0.33-2.07       c0.29-0.75,0.96-1.26,1.84-1.4c0.72-0.11,1.48-0.61,1.58-1.47c0.11-1,0.69-1.76,1.54-2.02c0.8-0.25,1.67,0,2.21,0.63       c3.39,3.93,7.36,7.63,11.46,10.71c0.39,0.29,0.64,0.74,0.67,1.23c0.03,0.48-0.14,0.95-0.48,1.29l-4.53,4.53       C16.56,63.24,16.02,63.45,15.48,63.45z M8.27,45.27c-0.12,0-0.23,0.02-0.35,0.05c-0.5,0.15-0.82,0.6-0.89,1.23       c-0.13,1.17-1.08,2.09-2.36,2.29c-0.54,0.08-0.94,0.38-1.11,0.81c-0.15,0.39-0.08,0.82,0.19,1.15       c3.04,3.77,7.79,8.5,10.93,11.4c0.46,0.43,1.17,0.41,1.62-0.03l4.53-4.53l0,0c0.15-0.15,0.23-0.35,0.21-0.56       c-0.02-0.22-0.13-0.41-0.3-0.55c-4.16-3.12-8.17-6.87-11.61-10.85C8.92,45.41,8.6,45.27,8.27,45.27z"/></g><g><path fill="#010101" d="M8.73 31.47c-.17 0-.33-.09-.42-.25C8.2 31 8.09 30.78 8 30.57c-.1-.24.01-.51.25-.61.24-.1.51.01.61.25.08.19.17.39.28.58.12.23.03.51-.2.63C8.88 31.45 8.8 31.47 8.73 31.47zM13.09 36.94c-.12 0-.23-.04-.32-.13-.06-.06-1.59-1.52-2.97-3.33-.16-.21-.12-.5.09-.66.21-.16.5-.12.66.09 1.34 1.75 2.86 3.21 2.88 3.22.19.18.19.48.02.66C13.34 36.89 13.22 36.94 13.09 36.94zM16.39 33.97c-.23 0-.43-.17-.46-.41-.2-1.59-.3-3.21-.28-4.81 0-.26.21-.45.47-.46.26 0 .47.21.46.47-.02 1.56.07 3.14.27 4.68.03.26-.15.49-.41.52C16.43 33.97 16.41 33.97 16.39 33.97zM9.9 39.62c-.06 0-.12-.01-.17-.03L4 37.28c-.24-.1-.36-.37-.26-.61.1-.24.37-.36.61-.26l5.72 2.31c.24.1.36.37.26.61C10.26 39.51 10.09 39.62 9.9 39.62z"/></g><g><path fill="#155647" d="M27.93,26.29c0.16,1.2,0.3,2.39,0.41,3.56c12.67-0.31,23.69-0.39,31.21,0l0.18-3.34        C49.18,25.26,38.49,25.18,27.93,26.29z"/><path fill="#CEFFAE" d="M59.73,26.5l0.9-16.56c-3.69,2.75-6.98,5.42-9.56,7.93c-3.04-5-5.17-9.19-6.23-12.43        c-2.46,4.02-5.31,8.25-8.42,12.64L26.39,8.18l0.03,1.61c-0.22,5.4,0.8,11.09,1.51,16.5C38.49,25.18,49.18,25.26,59.73,26.5z"/><path fill="#010101" d="M59.73,26.97c-0.02,0-0.04,0-0.05,0c-10.52-1.24-21.19-1.32-31.69-0.22c-0.25,0.03-0.48-0.15-0.51-0.41        c-0.13-1.01-0.28-2.04-0.42-3.06c-0.63-4.46-1.28-9.08-1.09-13.51l-0.03-1.58c0-0.19,0.11-0.36,0.28-0.44        c0.17-0.08,0.38-0.04,0.51,0.1l9.63,9.52c3.19-4.5,5.83-8.48,8.09-12.16c0.1-0.16,0.27-0.24,0.45-0.22        C45.07,5,45.22,5.13,45.28,5.3c0.98,3.01,2.96,6.99,5.88,11.83c2.32-2.22,5.33-4.7,9.18-7.57c0.15-0.11,0.34-0.12,0.5-0.04        C61,9.62,61.1,9.79,61.09,9.97l-0.9,16.56c-0.01,0.13-0.07,0.25-0.17,0.33C59.94,26.93,59.83,26.97,59.73,26.97z M42.83,25.04        c5.49,0,10.99,0.31,16.45,0.94l0.82-15.06c-3.67,2.77-6.52,5.16-8.71,7.29c-0.1,0.1-0.24,0.15-0.39,0.13s-0.27-0.1-0.34-0.22        c-2.83-4.64-4.82-8.54-5.95-11.59c-2.23,3.59-4.83,7.47-7.92,11.83c-0.08,0.11-0.2,0.18-0.34,0.2        c-0.14,0.01-0.27-0.04-0.37-0.13l-9.2-9.1l0.01,0.46c-0.18,4.37,0.46,8.95,1.08,13.37c0.12,0.88,0.25,1.75,0.36,2.62        C33.14,25.29,37.99,25.04,42.83,25.04z"/><path fill="#010101" d="M59.54,30.31c-0.01,0-0.02,0-0.02,0c-6.76-0.35-16.66-0.35-31.17,0c-0.23,0.02-0.45-0.18-0.48-0.42        c-0.1-1.04-0.23-2.16-0.41-3.54c-0.02-0.13,0.02-0.25,0.1-0.35c0.08-0.1,0.19-0.16,0.32-0.18c10.58-1.11,21.31-1.03,31.9,0.22        c0.25,0.03,0.43,0.24,0.41,0.49l-0.18,3.34C60,30.12,59.79,30.31,59.54,30.31z M28.45,26.7c0.13,1,0.23,1.86,0.31,2.66        c13.97-0.33,23.64-0.34,30.34-0.01l0.13-2.43C49.01,25.74,38.66,25.67,28.45,26.7z"/><path fill="#fff" d="M48.31,29.57c0,0.01,0,0.01-0.01,0.02c-2.84-0.01-5.88,0.01-9.1,0.05c0-0.01-0.01-0.01-0.01-0.02       c-0.06-1.66,0-3.33,0.18-4.99c0.1-0.91,0.23-1.82,0.61-2.67c0.38-0.85,1.03-1.65,1.96-2.12c0.93-0.47,2.16-0.56,3.09-0.1       c0.95,0.47,1.43,1.4,1.79,2.27C47.8,24.45,48.3,27.01,48.31,29.57z"/><path fill="#155647" d="M44.84 19.65c-.16.05-.3.11-.45.19-.93.47-1.58 1.26-1.95 2.12-.38.85-.52 1.77-.62 2.67-.18 1.65-.24 3.31-.18 4.97-.8.01-1.62.02-2.44.03 0 0 0-.01-.01-.02-.06-1.66 0-3.32.18-4.98.1-.91.24-1.83.62-2.67.38-.86 1.03-1.65 1.95-2.12C42.81 19.4 43.93 19.29 44.84 19.65zM28.42 10.16c-.5.62-1.3.93-2.08.9-.23-.01-.45-.05-.67-.12-.82-.28-1.42-1.16-1.4-2.07 0-.18.03-.36.08-.54.24-.89 1.09-1.49 2.01-1.49h.49c.73 0 1.43.37 1.8 1.01 0 .01.01.01.01.02C29.06 8.58 28.92 9.53 28.42 10.16z"/><path fill="#fff" d="M27.54,10.83c-0.37,0.17-0.79,0.24-1.19,0.23c-0.23,0-0.45-0.04-0.67-0.12c-0.82-0.28-1.42-1.16-1.41-2.07       c0-0.18,0.03-0.36,0.08-0.54c0.24-0.89,1.09-1.48,2.01-1.48h0.49c0.28,0,0.55,0.05,0.81,0.16c-0.57,0.24-1.03,0.71-1.19,1.33       c-0.04,0.18-0.07,0.36-0.07,0.54C26.37,9.68,26.85,10.47,27.54,10.83z"/><path fill="#155647" d="M62.52,11.2c-0.49,0.64-1.28,0.95-2.05,0.92c-0.22-0.01-0.44-0.05-0.66-0.12       c-0.81-0.29-1.4-1.19-1.38-2.12c0.01-0.85,0.53-1.67,1.25-1.98c0.34-0.13,0.7-0.19,1.08-0.19c0.81,0,1.59,0.42,1.98,1.14       c0,0.01,0.01,0.01,0.01,0.01C63.14,9.58,63.01,10.56,62.52,11.2z"/><path fill="#fff" d="M61.7,11.85c-0.38,0.2-0.81,0.28-1.24,0.26c-0.22-0.01-0.44-0.04-0.66-0.12c-0.81-0.28-1.4-1.19-1.38-2.12       c0.01-0.85,0.53-1.66,1.25-1.98c0.34-0.13,0.7-0.19,1.08-0.19c0.36,0,0.71,0.08,1.02,0.24c-0.67,0.34-1.15,1.12-1.16,1.93       C60.61,10.68,61.06,11.48,61.7,11.85z"/><path fill="#010101" d="M60.57,12.59c-0.04,0-0.09,0-0.13,0c-0.28-0.01-0.55-0.06-0.79-0.15c-1-0.35-1.71-1.43-1.69-2.57       c0.01-1.02,0.64-2.01,1.53-2.4c0.41-0.16,0.84-0.23,1.27-0.23c1,0,1.92,0.53,2.38,1.37c0,0.01,0.01,0.01,0.01,0.02       c0.47,0.86,0.36,2.03-0.27,2.85C62.35,12.18,61.5,12.59,60.57,12.59z M60.73,8.18c-0.32,0-0.61,0.05-0.88,0.16       c-0.53,0.23-0.94,0.89-0.95,1.55c-0.01,0.73,0.45,1.45,1.07,1.67c0.16,0.05,0.33,0.09,0.52,0.09c0.65,0.03,1.29-0.26,1.66-0.74       c0,0,0,0,0,0c0.39-0.51,0.48-1.29,0.19-1.82c-0.01-0.01-0.02-0.03-0.02-0.04c-0.29-0.53-0.89-0.87-1.56-0.87       C60.75,8.18,60.74,8.18,60.73,8.18z"/><path fill="#155647" d="M47.11,5.91c-0.65,1.81-2.74,1.61-2.74,1.61c-2.96-0.27-2.69-4.5,0.14-4.5c1.21,0.06,2.18,0.45,2.58,1.35       C47.3,4.86,47.28,5.42,47.11,5.91z"/><path fill="#fff" d="M45.74,7.31c-0.7,0.27-1.37,0.21-1.37,0.21c-2.96-0.26-2.69-4.5,0.14-4.5c0.44,0.02,0.85,0.09,1.21,0.21       C44.08,3.97,43.99,6.55,45.74,7.31z"/><path fill="#010101" d="M44.59,8c-0.1,0-0.19,0-0.27-0.01c-1.82-0.16-2.58-1.58-2.53-2.83c0.06-1.29,1.01-2.6,2.71-2.6       c1.93,0.1,2.7,0.94,3.01,1.63c0.25,0.57,0.26,1.24,0.03,1.89c0,0,0,0,0,0C46.99,7.61,45.5,8,44.59,8z M44.49,3.49       c-1.15,0-1.72,0.86-1.75,1.71c-0.04,0.85,0.47,1.75,1.68,1.86c0.07,0.01,1.74,0.14,2.26-1.3c0.15-0.42,0.15-0.84-0.01-1.19       C46.37,3.91,45.63,3.55,44.49,3.49z M47.11,5.91L47.11,5.91L47.11,5.91z"/><g><path fill="#010101" d="M26.46,11.46c-0.04,0-0.09,0-0.13,0c-0.28-0.01-0.54-0.06-0.79-0.14c-1.02-0.35-1.74-1.41-1.72-2.52       c0-0.21,0.03-0.43,0.09-0.65c0.29-1.08,1.3-1.83,2.46-1.83h0.49c0.92,0,1.76,0.48,2.2,1.25c0.01,0.01,0.02,0.04,0.02,0.05       c0.47,0.82,0.35,1.97-0.29,2.78C28.25,11.06,27.38,11.46,26.46,11.46z M26.36,7.25c-0.74,0-1.38,0.47-1.56,1.14       c-0.04,0.15-0.06,0.29-0.06,0.42c-0.01,0.71,0.46,1.4,1.09,1.62c0.16,0.05,0.34,0.09,0.53,0.09c0.67,0.03,1.32-0.25,1.7-0.72       c0.4-0.5,0.48-1.25,0.19-1.76C28.24,8.03,28.23,8,28.23,7.99c-0.26-0.45-0.79-0.74-1.38-0.74H26.36z"/></g><g><path fill="#010101" d="M39.2,30.11c-0.17,0-0.33-0.1-0.42-0.25c-0.01-0.01-0.02-0.04-0.02-0.05c-0.03-0.06-0.03-0.1-0.04-0.17       c-0.06-1.68,0-3.38,0.19-5.05c0.09-0.87,0.23-1.87,0.65-2.82c0.46-1.04,1.23-1.87,2.17-2.34c1.12-0.56,2.5-0.6,3.51-0.1       c1.09,0.54,1.63,1.58,2.01,2.52c1,2.5,1.52,5.1,1.52,7.73c0,0.05-0.01,0.11-0.03,0.16c-0.01,0.02-0.02,0.05-0.03,0.06       c-0.08,0.16-0.25,0.29-0.42,0.27C45.6,30.04,42.63,30.06,39.2,30.11C39.21,30.11,39.2,30.11,39.2,30.11z M43.65,19.91       c-0.5,0-1.03,0.12-1.5,0.35c-0.95,0.48-1.47,1.3-1.74,1.89c-0.37,0.82-0.49,1.74-0.58,2.53c-0.16,1.48-0.23,2.99-0.19,4.48       c3.04-0.04,5.73-0.05,8.19-0.05c-0.06-2.36-0.55-4.69-1.45-6.93c-0.33-0.82-0.75-1.63-1.56-2.03       C44.49,19.99,44.08,19.91,43.65,19.91z"/></g><g><path fill="#010101" d="M39.76,18.55c-0.09,0-0.19-0.03-0.27-0.09c-0.21-0.15-0.26-0.44-0.11-0.65l1.74-2.47     c0.15-0.21,0.44-0.26,0.65-0.11c0.21,0.15,0.26,0.44,0.11,0.65l-1.74,2.47C40.05,18.48,39.9,18.55,39.76,18.55z"/></g><g><path fill="#010101" d="M42.91,14.06c-0.09,0-0.19-0.03-0.27-0.09c-0.21-0.15-0.26-0.44-0.11-0.65l0.4-0.56     c0.15-0.21,0.44-0.26,0.65-0.11c0.21,0.15,0.26,0.44,0.11,0.65l-0.4,0.56C43.2,13.99,43.06,14.06,42.91,14.06z"/></g></g></svg>