<svg xmlns="http://www.w3.org/2000/svg" enable-background="new 0 0 66 66" viewBox="0 0 66 66" width="66" height="66"><path fill="#fff" d="M62.79,43.6c0,10.35-7.22,18.59-18.5,19.19v-5.55c-2.54,0.38-4.09-0.36-4.78-2.09       c-0.45-1.12-0.43-2.42,0.18-3.46c0.85-1.42,2.46-2.01,4.6-2.04V43.6h5.64c-0.67,1.63-0.13,3.49,1.25,4.58       c1.38,1.1,3.49,1.15,4.92,0.12c1.43-1.02,2.07-3.04,1.47-4.7H62.79z"/><path fill="#155647" d="M57.57,43.6c0.59,1.66-0.04,3.68-1.47,4.7c-1.43,1.03-3.55,0.98-4.92-0.12c-1.38-1.09-1.92-2.95-1.25-4.58       H44.3c-0.01-1.68,0.01-3.63,0-5.32c1.63,0.67,3.49,0.13,4.58-1.25c1.09-1.38,1.14-3.49,0.12-4.92       c-1.03-1.43-3.04-2.07-4.7-1.47c-0.02-1.76,0.02-3.52,0-5.28c8.29,0,17.94,5.83,18.5,18.24H57.57z"/><path fill="#fff" d="M62.79,43.6h-2.11c-1.11-10.47-8.95-15.86-16.38-16.67c0-0.52,0-1.05,0-1.57       C52.59,25.35,62.24,31.18,62.79,43.6z"/><path fill="#CEFFAE" d="M39.69,51.7c-0.61,1.04-0.64,2.34-0.18,3.46c0.69,1.73,2.25,2.47,4.78,2.09v5.55       c-11.92-0.62-17.82-7.54-19.18-19.19h5.64c-0.06-0.85,0.13-1.72,0.52-2.47c0.5-0.96,1.34-1.73,2.34-2.14       c0.76-0.31,1.62-0.43,2.42-0.24c0.81,0.19,1.55,0.68,1.97,1.4c0.59,1.02,0.85,2.19,0.92,3.46h5.37v6.06       C42.14,49.69,40.53,50.27,39.69,51.7z"/><path fill="#fff" d="M44.29,61.15v1.64c-11.92-0.62-17.82-7.55-19.18-19.19h2.29C28.96,53.69,34.23,59.92,44.29,61.15z"/><g><path fill="#010101" d="M44.29,63.26c-0.12,0-0.23-0.05-0.32-0.13c-0.09-0.09-0.15-0.21-0.15-0.34v-5.02       c-2.41,0.23-4.01-0.59-4.75-2.44c-0.53-1.3-0.45-2.75,0.21-3.87c0.83-1.4,2.32-2.14,4.54-2.25V43.6c0-0.26,0.21-0.47,0.47-0.47       h5.64c0.16,0,0.3,0.08,0.39,0.21c0.09,0.13,0.1,0.29,0.04,0.44c-0.58,1.41-0.12,3.07,1.11,4.04c1.22,0.97,3.09,1.02,4.36,0.11       c1.27-0.9,1.83-2.7,1.31-4.17c-0.05-0.14-0.03-0.3,0.06-0.42c0.09-0.12,0.23-0.2,0.38-0.2h5.22c0.26,0,0.47,0.21,0.47,0.47       c0,10.97-7.79,19.06-18.94,19.66C44.31,63.26,44.3,63.26,44.29,63.26z M44.29,56.78c0.11,0,0.22,0.04,0.3,0.11       c0.1,0.09,0.16,0.22,0.16,0.35v5.05c10.21-0.77,17.35-8.17,17.57-18.23h-4.14c0.33,1.71-0.39,3.6-1.81,4.61       c-1.59,1.14-3.95,1.09-5.48-0.13c-1.37-1.08-1.98-2.85-1.6-4.48h-4.54v5.6c0,0.25-0.2,0.46-0.46,0.47       c-2.13,0.03-3.5,0.62-4.21,1.81c-0.51,0.87-0.57,2.01-0.15,3.04c0.62,1.55,2.02,2.14,4.28,1.8       C44.24,56.78,44.27,56.78,44.29,56.78z"/><path fill="#010101" d="M53.72,49.5c-1.02,0-2.04-0.32-2.84-0.95c-1.37-1.08-1.98-2.85-1.6-4.48H44.3c-0.26,0-0.46-0.21-0.47-0.46       c-0.01-0.84,0-1.75,0-2.66c0-0.91,0.01-1.82,0-2.66c0-0.16,0.08-0.3,0.2-0.39c0.13-0.09,0.29-0.1,0.44-0.04       c1.4,0.58,3.06,0.12,4.04-1.11c0.96-1.22,1.01-3.1,0.1-4.37c-0.91-1.27-2.7-1.83-4.17-1.31c-0.14,0.05-0.3,0.03-0.42-0.06       c-0.12-0.09-0.2-0.23-0.2-0.38c-0.01-0.88-0.01-1.76,0-2.64c0.01-0.88,0.01-1.76,0-2.64c0-0.12,0.05-0.24,0.13-0.33       c0.09-0.09,0.21-0.14,0.33-0.14c9.01,0,18.42,6.42,18.96,18.69c0.01,0.13-0.04,0.25-0.13,0.34c-0.09,0.09-0.21,0.14-0.34,0.14       h-4.61c0.33,1.71-0.39,3.6-1.81,4.61C55.6,49.23,54.66,49.5,53.72,49.5z M44.76,43.13h5.17c0.16,0,0.3,0.08,0.39,0.21       c0.09,0.13,0.1,0.29,0.04,0.44c-0.58,1.41-0.12,3.07,1.11,4.04c1.22,0.97,3.09,1.02,4.36,0.11c1.27-0.9,1.83-2.7,1.31-4.17       c-0.05-0.14-0.03-0.3,0.06-0.42c0.09-0.12,0.23-0.2,0.38-0.2h4.73c-0.73-11.16-9.23-17.09-17.53-17.31c0,0.73,0,1.45,0,2.18       c0,0.68-0.01,1.35-0.01,2.03c1.7-0.33,3.6,0.39,4.62,1.81c1.13,1.59,1.08,3.95-0.13,5.48c-1.09,1.37-2.85,1.98-4.48,1.6       c0,0.66,0,1.34,0,2.03C44.76,41.69,44.76,42.43,44.76,43.13z"/><path fill="#010101" d="M44.29,63.26c-0.01,0-0.02,0-0.02,0c-11.57-0.6-18.17-7.2-19.62-19.6c-0.02-0.13,0.03-0.26,0.11-0.36       c0.09-0.1,0.21-0.16,0.35-0.16h5.16c0.02-0.77,0.22-1.53,0.58-2.22c0.56-1.06,1.47-1.9,2.57-2.36       c0.89-0.37,1.86-0.46,2.71-0.26c0.97,0.23,1.79,0.81,2.26,1.61c0.52,0.9,0.84,1.96,0.95,3.23h4.94c0.26,0,0.47,0.21,0.47,0.47       v6.06c0,0.25-0.2,0.46-0.46,0.47c-2.13,0.03-3.5,0.62-4.21,1.81c-0.51,0.87-0.57,2.01-0.15,3.04c0.62,1.55,2.02,2.14,4.28,1.8       c0.13-0.02,0.27,0.02,0.37,0.11c0.1,0.09,0.16,0.22,0.16,0.35v5.55c0,0.13-0.05,0.25-0.15,0.34       C44.52,63.21,44.41,63.26,44.29,63.26z M25.64,44.06c1.5,11.54,7.46,17.51,18.19,18.23v-4.53c-2.41,0.23-4.01-0.59-4.75-2.44       c-0.53-1.3-0.45-2.75,0.21-3.87c0,0,0,0,0,0c0.83-1.4,2.32-2.14,4.54-2.25v-5.15h-4.91c-0.25,0-0.45-0.19-0.46-0.44       c-0.07-1.32-0.35-2.38-0.86-3.25c-0.34-0.58-0.95-1.01-1.67-1.18c-0.67-0.16-1.43-0.08-2.14,0.21       c-0.9,0.38-1.65,1.06-2.11,1.93c-0.35,0.67-0.51,1.46-0.46,2.23c0.01,0.13-0.04,0.25-0.12,0.35c-0.09,0.09-0.21,0.15-0.34,0.15       H25.64z"/></g><g><path fill="#010101" d="M48.28,59.67c-0.2,0-0.39-0.13-0.45-0.34c-0.07-0.25,0.07-0.5,0.32-0.57c2.28-0.64,4.2-1.77,5.72-3.34      c0.18-0.19,0.47-0.19,0.66-0.01c0.19,0.18,0.19,0.47,0.01,0.66c-1.63,1.7-3.7,2.9-6.14,3.59      C48.37,59.67,48.33,59.67,48.28,59.67z"/></g><g><path fill="#010101" d="M55.71,54.29c-0.08,0-0.17-0.02-0.25-0.07c-0.22-0.14-0.28-0.42-0.15-0.64c0.5-0.8,0.7-1.37,0.7-1.38      c0.09-0.24,0.35-0.37,0.59-0.29c0.24,0.08,0.37,0.35,0.29,0.59c-0.01,0.03-0.23,0.66-0.79,1.56      C56.02,54.22,55.86,54.29,55.71,54.29z"/></g><g><path fill="#CEFFAE" d="M28.8,3.54c2.08,1.51-4.88,9.06-4.88,9.06s6.59-7.17,8.46-5.44c1.58,1.46-3.54,7.88-3.54,7.88               s6.01-6.26,7.67-4.64c1.63,1.6-4.09,7.95-4.09,7.95s5.19-5.44,6.79-4.12c3.01,2.49-7.84,13.27-7.84,13.27               c-7.36,7.21-11.59,7.03-11.59,7.03c-2.09,3.02-4.43,5.83-7.19,8.26c-0.24,0.21-0.49,0.42-0.81,0.47               c-0.38,0.07-0.76-0.14-1.09-0.34c-1.56-0.97-2.97-2.16-4.37-3.36c-0.86-0.73-1.72-1.46-2.57-2.2               c0,0-0.01-0.01-0.01-0.01c-0.65-0.57-0.69-1.57-0.16-2.25c2.34-2.95,4.56-5.35,6.87-7.3l1.13-8.36               C11.57,19.44,24.63,0.51,28.8,3.54z"/><path fill="#fff" d="M9.75,42.29c0.31,0.22,0.63,0.43,0.95,0.63c0.33,0.21,0.7,0.41,1.09,0.34               c0.31-0.04,0.57-0.26,0.81-0.47c2.76-2.43,5.1-5.24,7.19-8.26c-0.21-0.15-0.44-0.26-0.68-0.33               c-0.95-0.28-2.01,0.03-2.64,0.86c-1.9,2.49-4.19,5.03-6.39,6.97C9.96,42.12,9.86,42.21,9.75,42.29z"/><path fill="#010101" d="M11.62,43.74c-0.43,0-0.82-0.2-1.18-0.43c-1.62-1-3.11-2.28-4.42-3.4l-0.08-0.07                   c-0.83-0.71-1.67-1.42-2.5-2.13l0,0c-0.01-0.01-0.02-0.01-0.02-0.02c-0.81-0.71-0.9-2-0.21-2.88                   c2.43-3.07,4.59-5.38,6.8-7.25l1.1-8.18c0.01-0.07,0.04-0.14,0.08-0.2c0.44-0.63,10.74-15.49,16.02-16.39                   c0.72-0.12,1.35,0,1.86,0.37c0.33,0.24,0.53,0.6,0.57,1.04c0.1,1-0.64,2.49-1.61,3.95                   c1.25-0.95,2.53-1.69,3.5-1.73c0.47-0.02,0.86,0.11,1.16,0.39c1,0.93,0.14,3.05-1.02,4.99                   c1.4-1.12,2.96-2.13,4.08-2.15c0.44-0.01,0.8,0.13,1.08,0.4c0.95,0.93,0.13,2.87-1.04,4.69                   c1.41-0.98,2.85-1.59,3.71-0.88c0.43,0.36,0.66,0.85,0.69,1.47c0.17,3.82-8.15,12.13-8.5,12.48                   c-6.48,6.35-10.61,7.08-11.67,7.16c-2.29,3.27-4.62,5.93-7.13,8.15c-0.25,0.22-0.59,0.51-1.04,0.58                   C11.77,43.73,11.69,43.74,11.62,43.74z M4.06,37.01c0.83,0.71,1.66,1.42,2.49,2.12l0.08,0.07                   c1.29,1.1,2.75,2.35,4.31,3.32c0.27,0.17,0.54,0.32,0.76,0.28c0.18-0.03,0.36-0.17,0.58-0.36                   c2.5-2.2,4.83-4.88,7.11-8.17c0.09-0.13,0.24-0.2,0.4-0.2c0.04,0,4.17,0.03,11.25-6.9                   c2.33-2.32,8.36-8.95,8.23-11.78c-0.02-0.35-0.13-0.61-0.36-0.8c-0.76-0.63-3.79,1.6-6.16,4.08                   c-0.18,0.18-0.47,0.19-0.65,0.02c-0.19-0.17-0.2-0.46-0.03-0.65c2.61-2.9,4.92-6.51,4.11-7.31                   c-0.06-0.06-0.16-0.14-0.42-0.14c-1.68,0.03-5.33,3.45-6.59,4.77c-0.17,0.18-0.46,0.19-0.64,0.03                   c-0.19-0.16-0.21-0.45-0.06-0.64c2.34-2.94,4.34-6.55,3.59-7.24c-0.07-0.07-0.2-0.16-0.49-0.15                   c-1.87,0.08-5.87,3.99-7.29,5.53c-0.01,0.01-0.02,0.02-0.03,0.03c-0.17,0.19-0.47,0.2-0.66,0.03                   c-0.19-0.17-0.2-0.47-0.03-0.66c0.01-0.01,0.02-0.02,0.03-0.03c1.51-1.64,5.29-6.18,5.12-7.96                   c-0.02-0.23-0.11-0.32-0.19-0.38l0,0c-0.3-0.22-0.68-0.29-1.15-0.21c-4.7,0.8-14.47,14.65-15.35,15.91l-1.11,8.25                   c-0.02,0.11-0.07,0.22-0.16,0.29c-2.2,1.86-4.36,4.15-6.8,7.23c-0.39,0.5-0.35,1.22,0.1,1.61v0                   C4.05,37,4.05,37.01,4.06,37.01z"/></g><g><path fill="#155647" d="M32.97,21.85c-1.04-0.61-2.34-0.64-3.46-0.18c-1.73,0.69-2.47,2.25-2.09,4.78l-5.55,0      C22.5,14.53,29.43,8.63,41.08,7.27l0,5.64c0.85-0.06,1.72,0.13,2.47,0.52c0.96,0.5,1.73,1.34,2.14,2.34      c0.31,0.76,0.43,1.62,0.24,2.42c-0.19,0.81-0.68,1.55-1.4,1.97c-1.02,0.59-2.19,0.85-3.46,0.92l0,5.37l-6.06,0      C34.99,24.31,34.4,22.69,32.97,21.85z"/><path fill="#fff" d="M41.11,7.27v1.92c-10.33,1.64-16.43,6.1-17.01,17.26h-2.18C22.54,14.53,29.46,8.64,41.11,7.27z"/><path fill="#010101" d="M41.08,26.92h-6.06c-0.25,0-0.46-0.2-0.47-0.46c-0.03-2.13-0.62-3.5-1.81-4.21      c-0.87-0.51-2.01-0.57-3.04-0.15c-1.55,0.62-2.14,2.02-1.8,4.28c0.02,0.13-0.02,0.27-0.11,0.37c-0.09,0.1-0.22,0.16-0.35,0.16      h-5.55c-0.13,0-0.25-0.05-0.34-0.15c-0.09-0.09-0.13-0.22-0.13-0.34c0.6-11.57,7.2-18.17,19.6-19.62      c0.13-0.02,0.26,0.03,0.36,0.11c0.1,0.09,0.16,0.21,0.16,0.35v5.16c0.77,0.02,1.53,0.22,2.22,0.58c1.06,0.56,1.9,1.47,2.36,2.57      c0.37,0.89,0.46,1.86,0.26,2.71c-0.23,0.97-0.81,1.79-1.61,2.26c-0.9,0.52-1.96,0.84-3.23,0.95v4.94      C41.54,26.71,41.33,26.92,41.08,26.92z M35.46,25.99h5.15v-4.91c0-0.25,0.19-0.45,0.44-0.46c1.32-0.07,2.38-0.35,3.25-0.86      c0.58-0.34,1.01-0.95,1.18-1.67c0.16-0.67,0.08-1.43-0.21-2.14c-0.38-0.9-1.06-1.65-1.93-2.11c-0.67-0.35-1.46-0.52-2.23-0.46      c-0.13,0.01-0.25-0.04-0.35-0.12c-0.09-0.09-0.15-0.21-0.15-0.34V7.8C29.07,9.3,23.1,15.26,22.38,25.99h4.53      c-0.23-2.41,0.59-4.01,2.44-4.75c1.3-0.53,2.75-0.45,3.87,0.21c0,0,0,0,0,0C34.61,22.28,35.35,23.77,35.46,25.99z"/></g><g><path fill="#CEFFAE" d="M18.92,29.54l0.45-0.49c1.87-2.02,1.74-5.17-0.28-7.04l0,0l7.26-0.15c1.72-0.04,3.03-1.57,2.78-3.28v0      c-0.19-1.32-1.26-2.34-2.59-2.45c-3.73-0.32-7.4-0.45-10.9,0.09c-1.72,0.27-3.29,1.15-4.48,2.43l0,0      c-2.52,2.72-2.56,6.92-0.09,9.69l2.12,2.38"/><path fill="#010101" d="M13.2,31.19c-0.13,0-0.26-0.05-0.35-0.16l-2.12-2.38c-2.64-2.97-2.6-7.4,0.1-10.31      c1.28-1.38,2.97-2.3,4.75-2.58c3.79-0.59,7.69-0.38,11.01-0.09c1.55,0.13,2.79,1.3,3.01,2.85c0.14,0.95-0.14,1.9-0.76,2.63      c-0.62,0.73-1.52,1.16-2.47,1.18l-6.25,0.13c0.64,0.87,1,1.9,1.04,3c0.06,1.45-0.46,2.84-1.44,3.91l-0.45,0.49      c-0.18,0.19-0.47,0.2-0.66,0.03c-0.19-0.17-0.2-0.47-0.03-0.66l0.45-0.49c0.82-0.89,1.24-2.04,1.2-3.24      c-0.05-1.21-0.56-2.32-1.45-3.14c-0.14-0.13-0.19-0.33-0.12-0.51c0.07-0.18,0.24-0.3,0.43-0.3l7.26-0.15      c0.69-0.01,1.34-0.32,1.78-0.85c0.45-0.52,0.64-1.22,0.55-1.9c-0.16-1.11-1.05-1.96-2.17-2.05c-3.26-0.28-7.1-0.49-10.79,0.09      c-1.58,0.25-3.07,1.06-4.21,2.29c-2.37,2.56-2.41,6.46-0.09,9.06l2.12,2.38c0.17,0.19,0.15,0.49-0.04,0.66      C13.42,31.15,13.31,31.19,13.2,31.19z"/></g><g><path fill="#010101" d="M51.67 6.53c-.15 0-.29-.07-.38-.2-.15-.21-.09-.5.12-.65.16-.11.31-.2.46-.29.22-.13.51-.05.64.17.13.22.05.51-.17.64-.13.08-.27.16-.4.25C51.86 6.5 51.76 6.53 51.67 6.53zM48.01 10.25c-.1 0-.2-.03-.28-.09C47.52 10 47.48 9.71 47.64 9.5c.04-.05.99-1.32 2.21-2.51.18-.18.48-.18.66.01.18.18.18.48-.01.66-1.17 1.14-2.11 2.39-2.12 2.4C48.29 10.18 48.15 10.25 48.01 10.25zM50.5 12.43c-.21 0-.4-.14-.45-.35-.06-.25.09-.5.34-.56 1.16-.29 2.36-.5 3.55-.63.25-.03.49.16.51.41.03.26-.16.49-.41.51-1.15.12-2.31.33-3.43.61C50.57 12.43 50.53 12.43 50.5 12.43zM45.74 8.12c-.04 0-.08-.01-.12-.02-.25-.07-.39-.32-.33-.57l1.21-4.44c.07-.25.32-.39.57-.33.25.07.39.32.33.57l-1.21 4.44C46.13 7.98 45.95 8.12 45.74 8.12z"/></g><g><path fill="#010101" d="M19.3,53.17c-0.13,0-0.26-0.05-0.35-0.16c-0.17-0.2-0.32-0.42-0.46-0.63c-0.3-0.44-0.56-0.82-0.93-0.89      c-0.33-0.06-0.69,0.17-0.94,0.36c-0.11,0.09-0.21,0.18-0.32,0.27c-0.27,0.23-0.54,0.47-0.88,0.65      c-0.85,0.44-1.95,0.37-3.17-0.19c-0.29-0.13-0.57-0.28-0.84-0.43c-0.57-0.3-1.11-0.58-1.68-0.72c-1.05-0.25-2.15,0.01-3.3,0.29      c-1.05,0.25-2.14,0.51-3.25,0.39c-0.26-0.03-0.44-0.26-0.41-0.51c0.03-0.26,0.26-0.44,0.51-0.41c0.95,0.11,1.91-0.12,2.93-0.37      c1.21-0.29,2.46-0.59,3.73-0.29c0.69,0.16,1.31,0.49,1.9,0.8c0.26,0.14,0.53,0.28,0.8,0.4c0.67,0.31,1.62,0.59,2.36,0.21      c0.24-0.12,0.46-0.32,0.69-0.52c0.12-0.1,0.23-0.2,0.35-0.3c0.58-0.46,1.14-0.65,1.68-0.55c0.76,0.13,1.17,0.74,1.54,1.29      c0.13,0.2,0.26,0.38,0.4,0.54c0.17,0.19,0.15,0.49-0.05,0.66C19.51,53.13,19.4,53.17,19.3,53.17z"/><path fill="#155647" d="M26.74,62.72c2.82-2.86,5.02-6.57,5.19-8.32c0.04-0.45-0.29-0.84-0.74-0.87c-1.64-0.12-3.06,2-4.39,5.01       c2.07-4.78,2.23-7.99,1-9.16c-0.34-0.32-0.86-0.34-1.22-0.05c-1.55,1.24-2.25,4.28-2.67,7.94c0.38-6.15-0.59-9.55-2.39-10.31       c-0.35-0.15-0.75-0.08-1.03,0.17c-1.71,1.52-1.56,5.21-0.56,9.85c0.16,0.64,0.32,1.31,0.48,2.04c-0.18-0.7-0.34-1.38-0.48-2.04       c-1.19-4.66-2.54-6.96-4-7.75c-0.63,4.17-0.16,7.45,1.46,9.81c-3.09-3.65-5.17-5.08-6.62-4.86c-0.26,0.04-0.46,0.23-0.52,0.49       c-0.42,1.85,1.83,4.09,5.73,6.61c-4.64-1.86-8.08-2.61-9.75-2.04c-0.46,0.16-0.68,0.66-0.48,1.1c0.86,1.81,4.32,2.4,4.32,2.4"/><path fill="#fff" d="M13.04,62.72h-2.96c0,0-3.46-0.59-4.32-2.4c-0.21-0.44,0.02-0.94,0.47-1.1c0.72-0.24,1.75-0.25,3.06-0.03       c-0.04,0.01-0.07,0.02-0.1,0.03c-0.46,0.16-0.68,0.66-0.47,1.1C9.58,62.13,13.04,62.72,13.04,62.72z"/><path fill="#010101" d="M10.07,63.19c-0.03,0-0.05,0-0.08-0.01c-0.15-0.03-3.71-0.65-4.66-2.66c-0.15-0.32-0.16-0.7-0.03-1.02       c0.14-0.33,0.42-0.59,0.77-0.71c1.35-0.46,3.64-0.17,6.83,0.86c-2.45-1.97-3.44-3.62-3.1-5.09c0.1-0.45,0.46-0.78,0.9-0.85       c1.3-0.2,2.91,0.7,5,2.79c-0.59-2.04-0.67-4.49-0.24-7.34c0.02-0.15,0.12-0.28,0.25-0.35c0.14-0.07,0.3-0.06,0.43,0.01       c0.96,0.52,1.81,1.58,2.58,3.22c-0.12-2.58,0.36-4.29,1.44-5.26c0.42-0.38,1-0.47,1.52-0.26c1.47,0.62,2.37,2.6,2.65,5.79       c0.49-1.62,1.12-2.7,1.93-3.35c0.54-0.44,1.33-0.4,1.84,0.08c0.97,0.93,1.17,2.78,0.6,5.28c0.73-0.81,1.56-1.32,2.5-1.25       c0.34,0.02,0.65,0.18,0.87,0.44c0.22,0.26,0.33,0.59,0.3,0.94c-0.18,1.96-2.57,5.82-5.32,8.6c-0.18,0.18-0.48,0.19-0.66,0       c-0.18-0.18-0.19-0.48,0-0.66c2.84-2.88,4.91-6.48,5.05-8.04c0.01-0.09-0.02-0.18-0.08-0.25C31.32,54.04,31.24,54,31.15,54       c-1.2-0.09-2.49,1.46-3.94,4.73c-0.1,0.23-0.38,0.34-0.61,0.24c-0.24-0.1-0.34-0.38-0.24-0.61c2.19-5.05,2.01-7.78,1.11-8.64       c-0.17-0.16-0.43-0.17-0.61-0.03c-1.6,1.29-2.19,4.97-2.5,7.63c-0.03,0.25-0.26,0.43-0.5,0.41c-0.25-0.02-0.44-0.24-0.42-0.49       c0.35-5.55-0.42-9.14-2.1-9.85c-0.19-0.08-0.39-0.04-0.54,0.09c-1.38,1.23-1.52,4.31-0.42,9.4c0.16,0.61,0.32,1.29,0.48,2.04       c0.05,0.25-0.1,0.49-0.35,0.55c-0.25,0.06-0.5-0.09-0.56-0.34c-0.18-0.7-0.34-1.39-0.48-2.05c-0.92-3.59-1.99-5.94-3.18-7.02       c-0.45,3.71,0.05,6.64,1.49,8.72c0.14,0.2,0.1,0.48-0.1,0.63c-0.2,0.15-0.48,0.12-0.64-0.07c-2.8-3.31-4.89-4.89-6.19-4.7       c-0.06,0.01-0.12,0.06-0.13,0.13c-0.34,1.48,1.52,3.53,5.53,6.11c0.2,0.13,0.27,0.39,0.16,0.6c-0.11,0.21-0.36,0.31-0.59,0.22       c-4.57-1.83-7.92-2.55-9.43-2.03c-0.1,0.03-0.18,0.1-0.21,0.19c-0.03,0.06-0.04,0.15,0.01,0.26c0.62,1.3,3.08,1.99,3.98,2.14       c0.25,0.04,0.42,0.28,0.38,0.54C10.49,63.03,10.3,63.19,10.07,63.19z"/></g></svg>