<svg xmlns="http://www.w3.org/2000/svg" enable-background="new 0 0 66 66" viewBox="0 0 66 66" width="66" height="66"><path fill="#fff" d="M62.45,11.3c-22.53-0.13-37.08-0.26-59.6-0.4C2.76,22.7,2.45,40.7,2.51,49.95          c0.01,1.25,0.06,2.63,0.91,3.55c0.89,0.95,2.34,1.07,3.64,1.12c18.73,0.73,29.51,0.79,48.26,0.2          c2.16-0.07,4.59-0.27,5.99-1.93c1.19-1.41,1.24-3.41,1.24-5.24C62.52,36.31,62.49,22.63,62.45,11.3z"/><path fill="#155647" d="M62.44,8.44c0-1.32-0.05-2.76-0.88-3.77c-1.06-1.29-2.96-1.4-4.64-1.41c-4.78-0.03-9.57-0.07-14.35-0.1          C33.92,3.1,27.93,3.04,19.28,2.98c-2.86-0.02-6.09,0-11.58,0.01C5.05,3,2.87,5.17,2.87,7.83c0,0.99-0.01,2.02-0.02,3.08          c22.53,0.13,37.08,0.26,59.6,0.4C62.45,10.35,62.44,9.39,62.44,8.44z"/><path fill="#fff" d="M48.83 7.81C48.64 8 48.39 8.13 48.14 8.23c-.13.05-.28.08-.42.08l-3.46.05c-.47.01-.91-.27-1.07-.71 0 0 0 0 0-.01-.02-.06-.03-.14-.03-.22-.02-.61.51-1.11 1.12-1.11l3.4-.05c.28 0 .56.01.82.09.26.08.51.26.61.52C49.21 7.18 49.07 7.56 48.83 7.81zM57.81 7.68C57.62 7.87 57.37 8 57.12 8.1c-.13.05-.28.08-.42.08l-3.46.05c-.47.01-.91-.27-1.07-.71 0 0 0 0 0-.01-.02-.06-.03-.14-.03-.22-.02-.61.51-1.11 1.12-1.11l3.4-.05c.28 0 .56.01.82.09.26.08.51.26.61.52C58.19 7.05 58.05 7.43 57.81 7.68zM40.15 7.93c-.19.19-.43.32-.69.42-.13.05-.28.08-.42.08l-3.46.05C35.1 8.48 34.66 8.2 34.5 7.76c0 0 0 0 0-.01-.02-.06-.03-.14-.03-.22-.02-.61.51-1.11 1.12-1.11l3.4-.05c.28 0 .56.01.82.09.26.08.51.26.61.52C40.53 7.3 40.39 7.68 40.15 7.93z"/><path fill="#010101" d="M33.47,55.68c-8.08,0-16.03-0.2-26.42-0.6c-1.46-0.06-2.97-0.2-3.97-1.26           c-0.95-1.01-1.03-2.46-1.04-3.86C2,44,2.12,34.47,2.23,25.24c0.06-5.21,0.12-10.13,0.15-14.34c0-0.26,0.21-0.47,0.47-0.47           c0,0,0,0,0,0c11.26,0.07,20.53,0.13,29.8,0.2c9.27,0.07,18.54,0.13,29.8,0.2c0.26,0,0.47,0.21,0.47,0.47l0.11,36.35           c0.01,2.07-0.09,4.06-1.35,5.54c-1.52,1.79-4.07,2.02-6.34,2.09C46.98,55.55,40.18,55.68,33.47,55.68z M3.31,11.38           c-0.03,4.11-0.09,8.86-0.15,13.88c-0.11,9.22-0.22,18.75-0.19,24.7c0.01,1.26,0.07,2.46,0.79,3.23           c0.75,0.8,2.05,0.92,3.32,0.97c19,0.74,29.82,0.78,48.23,0.2c2.07-0.07,4.38-0.26,5.65-1.76c1.05-1.24,1.13-3.04,1.13-4.93           l-0.11-35.88c-11.05-0.07-20.2-0.13-29.34-0.2C23.51,11.51,14.36,11.44,3.31,11.38z"/><path fill="#010101" d="M62.45,11.77C62.45,11.77,62.45,11.77,62.45,11.77c-11.27-0.07-20.54-0.13-29.81-0.2           c-9.27-0.07-18.54-0.13-29.8-0.2c-0.12,0-0.24-0.05-0.33-0.14s-0.14-0.21-0.14-0.33C2.39,9.84,2.39,8.81,2.4,7.82           c0.01-2.92,2.39-5.29,5.31-5.3l2.99-0.01c3.79-0.01,6.29-0.02,8.59,0c4.32,0.03,7.98,0.06,11.64,0.09           c3.66,0.03,7.32,0.06,11.64,0.09l14.35,0.1c1.8,0.01,3.82,0.15,5,1.58c0.91,1.1,0.99,2.55,0.99,4.07l0.01,2.86           c0,0.13-0.05,0.25-0.14,0.33C62.69,11.72,62.57,11.77,62.45,11.77z M3.32,10.44c11.05,0.07,20.19,0.13,29.33,0.2           c9.14,0.07,18.28,0.13,29.33,0.2l-0.01-2.39v0c0-1.34-0.07-2.61-0.78-3.47c-0.92-1.12-2.7-1.23-4.28-1.24l-14.35-0.1           c-4.32-0.03-7.98-0.06-11.64-0.09c-3.66-0.03-7.32-0.06-11.64-0.09c-2.3-0.02-4.8-0.01-8.58,0L7.71,3.46           C5.3,3.47,3.34,5.42,3.33,7.83C3.33,8.67,3.33,9.54,3.32,10.44z"/><path fill="#010101" d="M44.24 8.83c-.67 0-1.26-.4-1.49-1-.01-.02-.02-.04-.02-.06v0c-.03-.12-.05-.23-.05-.35-.01-.39.14-.78.43-1.08.3-.31.72-.5 1.16-.5l3.4-.05c0 0 0 0 0 0 .31 0 .64.01.96.11.44.14.76.43.9.8.18.47.03 1.04-.37 1.44-.27.28-.62.43-.85.52-.19.08-.39.11-.59.12l-3.46.05C44.25 8.83 44.25 8.83 44.24 8.83zM43.62 7.49c.09.24.33.4.63.4l3.46-.05c.08 0 .17-.02.26-.05.25-.1.41-.19.52-.31 0 0 0 0 0 0 .14-.14.2-.33.16-.45-.04-.09-.16-.19-.31-.23-.2-.06-.43-.07-.68-.07l-3.39.05c-.18 0-.36.08-.49.21-.11.12-.17.27-.17.42C43.61 7.44 43.62 7.46 43.62 7.49zM53.22 8.7c-.67 0-1.26-.4-1.49-1-.01-.02-.02-.04-.02-.06l0 0c-.03-.12-.05-.23-.05-.35-.01-.39.14-.78.43-1.08.3-.31.72-.5 1.16-.5l3.4-.05c.01 0 .01 0 .01 0 .31 0 .63.01.95.11.44.14.76.43.9.8.18.47.03 1.04-.37 1.44l0 0c-.28.28-.62.43-.85.52C57.1 8.61 56.9 8.65 56.7 8.65L53.24 8.7C53.23 8.7 53.22 8.7 53.22 8.7zM52.6 7.36c.09.24.34.4.62.4 0 0 .01 0 .01 0l3.47-.05c.08 0 .17-.02.25-.05.25-.1.41-.19.53-.31l0 0c.14-.14.2-.33.16-.45-.04-.09-.16-.19-.31-.23-.2-.06-.45-.07-.68-.07l-3.39.05c-.18 0-.36.08-.49.21-.11.12-.17.27-.17.42C52.59 7.3 52.6 7.33 52.6 7.36zM57.81 7.68L57.81 7.68 57.81 7.68z"/><g><path fill="#010101" d="M35.56,8.94c-0.67,0-1.26-0.4-1.49-1c-0.01-0.02-0.02-0.04-0.02-0.06v0c-0.03-0.12-0.05-0.23-0.05-0.35          c-0.01-0.39,0.14-0.78,0.43-1.08c0.3-0.31,0.72-0.5,1.16-0.5l3.4-0.05c0,0,0,0,0,0c0.31,0,0.64,0.01,0.96,0.11          c0.43,0.14,0.76,0.43,0.9,0.8c0.18,0.47,0.03,1.04-0.37,1.44c-0.27,0.28-0.62,0.43-0.85,0.52          c-0.19,0.08-0.39,0.11-0.59,0.12l-3.46,0.05C35.57,8.94,35.56,8.94,35.56,8.94z M34.94,7.61c0.09,0.24,0.34,0.4,0.63,0.4          l3.46-0.05c0.08,0,0.17-0.02,0.26-0.05c0.25-0.1,0.41-0.19,0.52-0.31c0,0,0,0,0,0c0.14-0.14,0.2-0.33,0.16-0.45          c-0.04-0.09-0.16-0.19-0.31-0.23c-0.2-0.06-0.43-0.07-0.68-0.07l-3.39,0.05c-0.18,0-0.36,0.08-0.49,0.21          c-0.11,0.12-0.17,0.27-0.17,0.42C34.93,7.55,34.93,7.58,34.94,7.61z"/></g><g><path fill="#010101" d="M63.5 63.49l-1.32 0c-.26 0-.47-.21-.47-.47s.21-.47.47-.47l1.32 0c.26 0 .47.21.47.47C63.97 63.28 63.76 63.49 63.5 63.49zM31.78 63.5c-1.51 0-3.06 0-4.65 0-.26 0-.47-.21-.47-.47 0-.26.21-.47.47-.47h0c5.53.01 10.46 0 15.34-.01 5.59-.01 11.13-.01 17.46 0 .26 0 .47.21.47.47 0 .26-.21.47-.47.47 0 0 0 0 0 0-6.33-.01-11.87-.01-17.46 0C39 63.49 35.5 63.5 31.78 63.5zM24.88 63.49h-1.32c-.26 0-.47-.21-.47-.47 0-.26.21-.47.47-.47h1.32c.26 0 .47.21.47.47C25.35 63.28 25.14 63.49 24.88 63.49z"/></g><g><path fill="#CEFFAE" d="M12.82,52.12c-7,0-7-10.71,0-10.71C19.82,41.41,19.82,52.12,12.82,52.12z"/><path fill="#fff" d="M13.89,52.03c-0.34,0.06-0.69,0.09-1.07,0.09c-7.01,0-7.01-10.71,0-10.71c0.38,0,0.73,0.03,1.07,0.09      C8.3,42.48,8.3,51.06,13.89,52.03z"/><path fill="#010101" d="M12.82,52.59c-3.76,0-5.72-2.93-5.72-5.83c0-2.89,1.97-5.83,5.72-5.83c3.76,0,5.72,2.93,5.72,5.83      C18.54,49.66,16.57,52.59,12.82,52.59z M12.82,41.88c-3.29,0-4.78,2.53-4.78,4.89c0,2.35,1.5,4.89,4.78,4.89      c3.29,0,4.79-2.53,4.79-4.89C17.6,44.41,16.1,41.88,12.82,41.88z"/><path fill="#010101" d="M15.42 49.69c-.17 0-.33-.09-.41-.25-.34-.64-1.08-1.04-1.93-1.06-.87-.01-1.64.39-2.04 1.07-.13.22-.42.3-.64.17-.22-.13-.3-.42-.17-.64.57-.98 1.64-1.55 2.86-1.54 1.19.02 2.24.61 2.74 1.55.12.23.04.51-.19.64C15.57 49.67 15.49 49.69 15.42 49.69zM14.23 46.48c-.26 0-.47-.21-.47-.47l0-1.14c0-.26.21-.47.47-.47h0c.26 0 .47.21.47.47l0 1.14C14.7 46.27 14.49 46.48 14.23 46.48L14.23 46.48zM11.69 46.48c-.26 0-.47-.21-.47-.47l0-1.14c0-.26.21-.47.47-.47h0c.26 0 .47.21.47.47l0 1.14C12.16 46.27 11.95 46.48 11.69 46.48L11.69 46.48z"/><g><path fill="#CEFFAE" d="M12.82,24.71c-7,0-7-10.71,0-10.71C19.82,13.99,19.82,24.71,12.82,24.71z"/><path fill="#fff" d="M13.89,24.61c-0.34,0.06-0.69,0.09-1.07,0.09c-7.01,0-7.01-10.71,0-10.71c0.38,0,0.73,0.03,1.07,0.09      C8.3,15.05,8.3,23.65,13.89,24.61z"/><path fill="#010101" d="M12.82,25.17c-3.76,0-5.72-2.93-5.72-5.83s1.97-5.83,5.72-5.83c3.76,0,5.72,2.93,5.72,5.83      S16.57,25.17,12.82,25.17z M12.82,14.46c-3.29,0-4.78,2.53-4.78,4.89s1.5,4.89,4.78,4.89c3.29,0,4.79-2.53,4.79-4.89      S16.1,14.46,12.82,14.46z"/><path fill="#010101" d="M14.23 19.07c-.26 0-.47-.21-.47-.47l0-1.14c0-.26.21-.47.47-.47h0c.26 0 .47.21.47.47l0 1.14C14.7 18.86 14.49 19.07 14.23 19.07L14.23 19.07zM11.69 19.07c-.26 0-.47-.21-.47-.47l0-1.14c0-.26.21-.47.47-.47h0c.26 0 .47.21.47.47l0 1.14C12.16 18.86 11.95 19.07 11.69 19.07L11.69 19.07z"/></g><g><path fill="#155647" d="M12.82,38.42c-7,0-7-10.71,0-10.71C19.82,27.7,19.82,38.42,12.82,38.42z"/><path fill="#fff" d="M13.89,38.32c-0.34,0.06-0.69,0.09-1.07,0.09c-7.01,0-7.01-10.71,0-10.71c0.38,0,0.73,0.03,1.07,0.09      C8.3,28.77,8.3,37.36,13.89,38.32z"/><path fill="#010101" d="M12.82,38.88c-3.76,0-5.72-2.93-5.72-5.83c0-2.89,1.97-5.83,5.72-5.83c3.76,0,5.72,2.93,5.72,5.83      C18.54,35.95,16.57,38.88,12.82,38.88z M12.82,28.17c-3.29,0-4.78,2.53-4.78,4.89c0,2.35,1.5,4.89,4.78,4.89      c3.29,0,4.79-2.53,4.79-4.89C17.6,30.71,16.1,28.17,12.82,28.17z"/><path fill="#010101" d="M13.02 35.75c-.02 0-.04 0-.06 0-1.18-.02-2.23-.61-2.74-1.55-.12-.23-.04-.51.19-.64.23-.12.51-.04.64.19.34.64 1.08 1.04 1.93 1.06.9.01 1.64-.39 2.04-1.07.13-.22.42-.3.64-.17.22.13.3.42.17.64C15.26 35.17 14.22 35.75 13.02 35.75zM14.23 32.78c-.26 0-.47-.21-.47-.47l0-1.14c0-.26.21-.47.47-.47h0c.26 0 .47.21.47.47l0 1.14C14.7 32.56 14.49 32.78 14.23 32.78L14.23 32.78zM11.69 32.78c-.26 0-.47-.21-.47-.47l0-1.14c0-.26.21-.47.47-.47h0c.26 0 .47.21.47.47l0 1.14C12.16 32.56 11.95 32.78 11.69 32.78L11.69 32.78z"/></g></g><g><path fill="#fff" d="M10.12,20.38c0.33,1.07,1.22,2.19,2.69,2.19c1.47,0,2.36-1.13,2.69-2.19H10.12z"/><path fill="#CEFFAE" d="M14.31,22.11c-0.41,0.29-0.9,0.47-1.49,0.47c-0.59,0-1.09-0.18-1.49-0.47c0.36-0.41,0.86-0.67,1.49-0.67     C13.45,21.44,13.95,21.7,14.31,22.11z"/><path fill="#010101" d="M12.82,23.04c-1.74,0-2.78-1.36-3.14-2.52c-0.08-0.25,0.06-0.51,0.31-0.59c0.25-0.08,0.51,0.06,0.59,0.31     c0.28,0.9,1.01,1.86,2.24,1.86s1.97-0.96,2.24-1.86c0.08-0.25,0.34-0.39,0.59-0.31c0.25,0.08,0.39,0.34,0.31,0.59     C15.6,21.68,14.56,23.04,12.82,23.04z"/></g><g><path fill="#fff" d="M57.84,19.3c0,1.68-1.35,3.03-3.03,3.05c-11.14,0.06-19.04,0.34-28.84-0.07c-1.79-0.08-3.15-1.69-2.87-3.51     c0.23-1.56,1.69-2.64,3.27-2.58c9.76,0.39,17.27,0.11,28.4,0.05C56.47,16.24,57.84,17.61,57.84,19.3z"/><path fill="#CEFFAE" d="M46.02,19.42c0,1.68-1.35,3.04-3.02,3.05c-5.75,0.06-11.03,0.07-17.03-0.18c-1.79-0.08-3.15-1.69-2.87-3.51     c0.23-1.56,1.69-2.64,3.27-2.58c5.91,0.24,11.01,0.23,16.58,0.17C44.64,16.35,46.02,17.72,46.02,19.42z"/><path fill="#fff" d="M28.73,22.38c-0.91-0.03-1.83-0.06-2.76-0.1c-1.79-0.08-3.15-1.69-2.87-3.51c0.23-1.56,1.69-2.64,3.27-2.58     c0.65,0.03,1.3,0.05,1.93,0.07c-1.23,0.26-2.26,1.22-2.44,2.51C25.58,20.59,26.94,22.3,28.73,22.38z"/><path fill="#010101" d="M43,22.94c-0.26,0-0.47-0.21-0.47-0.47c0-0.26,0.21-0.47,0.47-0.47c1.41-0.01,2.56-1.17,2.56-2.58     c0-0.69-0.27-1.34-0.76-1.83c-0.49-0.49-1.13-0.76-1.84-0.75c0,0,0,0,0,0c-0.26,0-0.47-0.21-0.47-0.47     c0-0.26,0.21-0.47,0.47-0.47c0.93,0,1.84,0.35,2.51,1.02c0.67,0.67,1.04,1.55,1.04,2.5C46.49,21.34,44.93,22.92,43,22.94     C43.01,22.94,43,22.94,43,22.94z"/><path fill="#010101" d="M37.29,22.97c-3.69,0-7.36-0.05-11.33-0.22c-0.99-0.04-1.92-0.51-2.56-1.27c-0.63-0.77-0.91-1.78-0.76-2.77     c0.26-1.75,1.89-3.06,3.75-2.97c7.15,0.29,13.18,0.21,20.17,0.13c2.56-0.03,5.26-0.06,8.21-0.08c0.95-0.02,1.83,0.36,2.5,1.02     c0.67,0.67,1.04,1.55,1.04,2.5c0,1.92-1.57,3.5-3.49,3.52c-2.96,0.02-5.68,0.05-8.28,0.08C43.32,22.94,40.29,22.97,37.29,22.97z      M26.23,16.67c-1.33,0-2.48,0.94-2.66,2.18c-0.11,0.74,0.09,1.46,0.56,2.04c0.46,0.56,1.15,0.9,1.87,0.93     c7.19,0.3,13.37,0.23,20.53,0.15c2.6-0.03,5.32-0.06,8.28-0.08c1.41-0.01,2.56-1.17,2.56-2.58c0-0.69-0.27-1.35-0.76-1.84     c-0.49-0.48-1.13-0.75-1.82-0.75c0,0-0.01,0-0.01,0c-2.95,0.02-5.65,0.05-8.21,0.08c-7,0.08-13.04,0.16-20.22-0.13     C26.31,16.67,26.27,16.67,26.23,16.67z"/></g><g><path fill="#fff" d="M57.84,33.01c0,1.68-1.35,3.03-3.03,3.05c-11.14,0.06-19.04,0.34-28.84-0.07c-1.79-0.08-3.15-1.69-2.87-3.51     c0.23-1.56,1.69-2.64,3.27-2.58c9.76,0.39,17.27,0.11,28.4,0.05C56.47,29.95,57.84,31.32,57.84,33.01z"/><path fill="#155647" d="M38.62,33.16c0,1.69-1.38,3.06-3.07,3.05c-3.11-0.01-6.23-0.08-9.58-0.21c-1.79-0.08-3.15-1.69-2.87-3.51     c0.23-1.56,1.69-2.64,3.27-2.58c3.25,0.13,6.25,0.19,9.22,0.2C37.26,30.12,38.62,31.48,38.62,33.16z"/><path fill="#010101" d="M35.57,36.68c-0.01,0-0.01,0-0.02,0c-0.26,0-0.47-0.21-0.47-0.47c0-0.26,0.21-0.47,0.47-0.47     c0.01,0,0.01,0,0.02,0c0.69,0,1.33-0.27,1.82-0.75c0.49-0.49,0.76-1.14,0.76-1.83c0-1.42-1.15-2.57-2.56-2.58     c-0.26,0-0.47-0.21-0.47-0.47c0-0.26,0.21-0.47,0.47-0.47c0,0,0,0,0,0c1.93,0.01,3.5,1.58,3.5,3.51c0,0.94-0.37,1.83-1.04,2.49     C37.39,36.31,36.51,36.68,35.57,36.68z"/><path fill="#fff" d="M28.73,36.09c-0.91-0.03-1.83-0.06-2.76-0.1c-1.79-0.08-3.15-1.69-2.87-3.51c0.23-1.56,1.69-2.64,3.27-2.58     c0.65,0.03,1.3,0.05,1.93,0.07c-1.23,0.26-2.26,1.22-2.44,2.51C25.58,34.3,26.94,36.01,28.73,36.09z"/><path fill="#010101" d="M37.28,36.68c-3.69,0-7.35-0.05-11.33-0.22c-0.99-0.04-1.92-0.51-2.56-1.27c-0.63-0.77-0.91-1.78-0.76-2.77     c0.26-1.75,1.89-3.05,3.75-2.97c7.15,0.28,13.19,0.21,20.17,0.13c2.55-0.03,5.25-0.06,8.21-0.08c0.01,0,0.01,0,0.02,0     c0.94,0,1.82,0.36,2.48,1.02c0.67,0.67,1.04,1.55,1.04,2.5c0,1.92-1.57,3.5-3.49,3.52c-2.96,0.02-5.69,0.05-8.28,0.08     C43.31,36.65,40.29,36.68,37.28,36.68z M26.23,30.38c-1.33,0-2.48,0.94-2.66,2.18c-0.11,0.74,0.09,1.46,0.56,2.04     c0.46,0.56,1.15,0.9,1.87,0.93c7.19,0.3,13.37,0.23,20.53,0.15c2.6-0.03,5.33-0.06,8.28-0.08c1.41-0.01,2.56-1.17,2.56-2.58     c0-0.69-0.27-1.35-0.76-1.84c-0.49-0.48-1.13-0.75-1.82-0.75c0,0-0.01,0-0.01,0c-2.95,0.02-5.65,0.05-8.2,0.08     c-7,0.08-13.04,0.16-20.22-0.13C26.31,30.38,26.27,30.38,26.23,30.38z"/></g><g><path fill="#155647" d="M57.3,41.27c1.17,0.02,2.14,0.95,2.21,2.12c0.32,5.78,0.34,11.58,0.07,17.37c-0.05,1.18-1.02,2.11-2.2,2.13      h-7.49c1.18-0.03,2.15-0.96,2.2-2.13c0.27-5.79,0.25-11.58-0.07-17.37c-0.06-1.17-1.03-2.1-2.21-2.12H57.3z"/><path fill="#CEFFAE" d="M52.09,60.76c0.27-5.79,0.25-11.58-0.07-17.37c-0.06-1.17-1.03-2.1-2.21-2.12c-7.5-0.14-12.18-0.14-19.68,0      c-1.17,0.02-2.14,0.95-2.21,2.12c-0.32,5.79-0.34,11.59-0.07,17.38c0.05,1.17,1.01,2.1,2.18,2.13      c7.16,0.18,11.94,0.16,19.85-0.01C51.07,62.86,52.04,61.93,52.09,60.76z"/><path fill="#fff" d="M31.78,62.94c-0.57-0.02-1.15-0.03-1.74-0.04c-1.17-0.03-2.13-0.96-2.18-2.13      c-0.27-5.79-0.24-11.59,0.08-17.38c0.06-1.17,1.03-2.1,2.21-2.12c0.57-0.01,1.13-0.02,1.67-0.03c-1.02,0.18-1.82,1.09-1.88,2.15      c-0.32,5.79-0.34,11.59-0.08,17.38C29.9,61.86,30.72,62.79,31.78,62.94z"/><path fill="#155647" d="M42.76,47.16c-0.1,0.14-0.36,0.22-0.52,0.23c-0.74,0.03-1.49-2.14-2.23-2.15         c-0.62-0.01-1.16,2.17-1.97,2.17c-0.26,0-0.41,0.01-0.63-0.15c-0.29-0.22-0.29-0.63-0.29-1l-0.08-5.1         c1.95-0.01,3.89-0.01,5.84,0l0.01,5.26C42.91,46.67,42.91,46.96,42.76,47.16z"/><path fill="#fff" d="M38.47,41.98l-0.01-0.81c-0.47,0-0.94,0-1.41,0l0.08,5.1c-0.01,0.36,0,0.78,0.29,1         c0.21,0.16,0.36,0.15,0.63,0.15c0.15,0,0.3-0.08,0.43-0.21V41.98z"/><path fill="#010101" d="M39.21,63.5c-3,0-5.83-0.04-9.19-0.13c-1.41-0.04-2.58-1.17-2.64-2.58c-0.27-5.79-0.25-11.65,0.07-17.43      c0.08-1.41,1.25-2.54,2.67-2.56c7.55-0.14,12.15-0.14,19.69,0c1.42,0.03,2.59,1.15,2.67,2.56c0.32,5.78,0.34,11.64,0.07,17.42v0      c-0.07,1.42-1.23,2.55-2.66,2.58C45.63,63.45,42.33,63.5,39.21,63.5z M39.97,41.64c-3.03,0-6.06,0.03-9.83,0.1      c-0.93,0.02-1.7,0.75-1.75,1.68c-0.32,5.75-0.34,11.58-0.07,17.33c0.04,0.92,0.8,1.66,1.73,1.69      c6.81,0.17,11.45,0.17,19.83-0.01c0.93-0.02,1.7-0.76,1.74-1.69l0,0c0.27-5.75,0.24-11.57-0.07-17.32      c-0.05-0.92-0.82-1.66-1.75-1.68C46.04,41.67,43,41.64,39.97,41.64z M52.09,60.76L52.09,60.76L52.09,60.76z"/><path fill="#010101" d="M49.89 63.36c-.26 0-.47-.21-.47-.46 0-.26.2-.47.46-.47.93-.02 1.7-.76 1.74-1.69.27-5.75.24-11.57-.07-17.32-.05-.92-.82-1.66-1.75-1.68-.26 0-.46-.22-.46-.47 0-.26.21-.46.47-.46h7.49c0 0 .01 0 .01 0 1.42.03 2.59 1.15 2.67 2.56.32 5.78.34 11.64.07 17.42-.07 1.42-1.23 2.55-2.66 2.58L49.89 63.36zM51.9 62.42h5.48c.92-.02 1.69-.76 1.73-1.69.27-5.75.24-11.57-.07-17.32-.05-.92-.82-1.66-1.74-1.68h-5.47c.38.44.63 1 .66 1.62.32 5.78.34 11.64.07 17.42C52.53 61.4 52.29 61.98 51.9 62.42zM38 47.89c-.29 0-.56-.01-.87-.24-.5-.38-.48-1.03-.47-1.38l-.08-5.08c0-.13.05-.25.13-.34.09-.09.21-.14.33-.14 1.95-.01 3.89-.01 5.84 0 .26 0 .47.21.47.47l.01 5.26c.02.31 0 .69-.22 1-.22.31-.67.41-.88.42-.64.03-1.07-.61-1.54-1.28-.18-.26-.51-.74-.69-.85-.13.13-.34.49-.47.72-.38.67-.82 1.43-1.52 1.43C38.03 47.89 38.02 47.89 38 47.89zM37.53 41.64l.07 4.62c0 .18-.01.54.1.63.07.05.07.05.3.05.21-.03.57-.66.75-.96.36-.62.7-1.21 1.26-1.21 0 0 .01 0 .01 0 .61.01 1.03.63 1.48 1.28.2.29.57.83.74.88.03 0 .12-.03.16-.06.03-.06.05-.2.04-.41l-.01-4.82C40.79 41.63 39.16 41.63 37.53 41.64zM42.4 46.86C42.4 46.86 42.4 46.86 42.4 46.86 42.4 46.86 42.4 46.86 42.4 46.86 42.4 46.86 42.4 46.86 42.4 46.86z"/><g><path fill="#010101" d="M44.88,61.19c-0.24,0-0.45-0.19-0.47-0.43c-0.12-1.66-0.13-3.34-0.04-5c0.02-0.26,0.24-0.46,0.5-0.44      c0.26,0.02,0.46,0.24,0.44,0.5c-0.09,1.62-0.08,3.26,0.04,4.87c0.02,0.26-0.18,0.48-0.43,0.5      C44.9,61.19,44.89,61.19,44.88,61.19z"/><path fill="#010101" d="M43.85,56.97c-0.1,0-0.19-0.03-0.28-0.09c-0.21-0.15-0.25-0.45-0.1-0.66c0.31-0.42,0.67-0.82,1.06-1.19      c0.11-0.1,0.27-0.15,0.42-0.12c0.15,0.03,0.27,0.14,0.33,0.28c0.13,0.31,0.39,0.57,0.7,0.7c0.24,0.1,0.35,0.37,0.25,0.61      c-0.1,0.24-0.37,0.35-0.61,0.25c-0.33-0.14-0.63-0.36-0.86-0.63c-0.19,0.21-0.37,0.43-0.54,0.65      C44.13,56.9,43.99,56.97,43.85,56.97z"/></g><g><path fill="#010101" d="M48.33,61.19c-0.24,0-0.45-0.19-0.47-0.43c-0.12-1.66-0.13-3.34-0.04-5c0.02-0.26,0.25-0.46,0.5-0.44      c0.26,0.02,0.46,0.24,0.44,0.5c-0.09,1.62-0.08,3.26,0.04,4.87c0.02,0.26-0.18,0.48-0.43,0.5      C48.35,61.19,48.34,61.19,48.33,61.19z"/><path fill="#010101" d="M47.29,56.97c-0.1,0-0.19-0.03-0.28-0.09c-0.21-0.15-0.25-0.45-0.1-0.66c0.31-0.42,0.67-0.82,1.06-1.19      c0.11-0.1,0.27-0.15,0.42-0.12c0.15,0.03,0.27,0.14,0.33,0.28c0.13,0.31,0.39,0.57,0.7,0.7c0.24,0.1,0.35,0.37,0.25,0.61      c-0.1,0.24-0.37,0.35-0.61,0.25c-0.33-0.14-0.63-0.36-0.86-0.63c-0.19,0.21-0.37,0.43-0.54,0.65      C47.58,56.9,47.44,56.97,47.29,56.97z"/></g></g></svg>