<svg xmlns="http://www.w3.org/2000/svg" enable-background="new 0 0 66 66" viewBox="0 0 66 66" width="66" height="66"><path fill="#155647" d="M18.7,61.46c-0.31,0.42-1.13,0.77-1.65,0.79l-4.46-0.16c-0.51,0-1.03,0-1.5-0.05      c-0.92-0.09-1.63-0.8-1.74-1.72c-0.07-0.58-0.03-1.21-0.01-1.76c0.21-5.3-0.02-10.6,0.21-15.9c0.05-1.11,0.59-1.7,1.64-2.04      c1.09-0.36,1.11-0.23,3.79-0.23c1.31,0,2.81,0.12,3.61,1.16c0.56,0.73,0.61,1.73,0.63,2.66c0.11,4.99-0.2,10.06-0.09,15.05      C19.15,60.01,19.16,60.83,18.7,61.46z"/><path fill="#fff" d="M11.84,42.66c-0.23,5.3,0,10.6-0.21,15.9c-0.03,0.55-0.06,1.19,0.01,1.76c0.11,0.92,0.82,1.71,1.74,1.8      l-0.79-0.03c-0.51,0-1.03,0-1.5-0.05c-0.92-0.09-1.63-0.8-1.74-1.72c-0.07-0.58-0.04-1.21-0.01-1.76      c0.21-5.29-0.02-10.6,0.21-15.9c0.05-1.11,0.6-1.7,1.64-2.04c1.02-0.33,1.1-0.25,3.29-0.23c-0.32,0.03-0.57,0.09-0.99,0.23      C12.43,40.96,11.89,41.54,11.84,42.66z"/><path fill="#CEFFAE" d="M32.19,61.56c-0.31,0.42-1.13,0.71-1.65,0.75l-4.46,0.02c-0.51,0.01-1.03,0.01-1.5-0.03      c-0.92-0.07-1.63-0.77-1.74-1.69c-0.07-0.58-0.03-1.21-0.01-1.76c0.21-5.3-0.02-23.39,0.21-28.69c0.05-1.11,0.59-1.71,1.64-2.08      c1.09-0.38,1.11-0.26,3.79-0.3c1.31-0.02,2.81,0.06,3.61,1.08c0.56,0.72,0.61,1.72,0.63,2.64c0.11,4.99-0.2,22.77-0.09,27.76      C32.64,60.02,32.65,60.92,32.19,61.56z"/><path fill="#fff" d="M26.87 62.3c.14.01.29.02.44.02l-1.24 0c-.51.01-1.03.01-1.5-.03-.92-.07-1.63-.77-1.75-1.69-.07-.58-.03-1.21 0-1.76.21-5.3-.02-23.38.21-28.69.05-1.11.59-1.71 1.64-2.08 1.09-.38 1.11-.26 3.8-.3.33 0 .68 0 1.03.01-1.46-.04-1.65-.02-2.53.29-1.05.37-1.59.96-1.64 2.08-.23 5.3 0 23.38-.21 28.69-.03.55-.06 1.19 0 1.76C25.24 61.53 25.95 62.23 26.87 62.3zM45.68 61.39c-.31.42-1.13.69-1.65.71l-4.46.1c-.51 0-1.03 0-1.5-.05-.92-.09-1.63-.8-1.74-1.72-.07-.58-.03-1.21-.01-1.76.21-5.3-.02-31.43.21-36.73.05-1.11.59-1.7 1.64-2.04 1.09-.36 1.11-.23 3.79-.23 1.31 0 2.81.12 3.61 1.16.56.73.61 1.73.63 2.66.11 4.99-.19 30.63-.08 35.63C46.14 59.86 46.15 60.77 45.68 61.39z"/><path fill="#155647" d="M59.17,61.1c-0.31,0.42-1.13,0.69-1.65,0.71L53,61.92c-0.51,0-1.03,0-1.5-0.05      c-0.92-0.09-1.57-0.9-1.68-1.82c-0.07-0.58-0.03-1.21-0.01-1.76c0.21-5.3-0.02-13.74,0.21-19.04c0.05-1.11,0.59-1.7,1.64-2.04      c1.09-0.36,1.11-0.23,3.79-0.23c1.31,0,2.81,0.12,3.61,1.16c0.56,0.73,0.61,1.73,0.63,2.66c0.11,4.99-0.2,13.03-0.09,18.03      C59.63,59.57,59.64,60.47,59.17,61.1z"/><path fill="#fff" d="M53.79,61.87c0.1,0.01,0.21,0.02,0.31,0.02l-1.1,0.03c-0.51,0-1.04,0-1.5-0.05      c-0.92-0.09-1.57-0.9-1.68-1.82c-0.07-0.58-0.04-1.21-0.01-1.76c0.21-5.3-0.02-13.74,0.21-19.03c0.06-1.11,0.6-1.7,1.64-2.04      c1.02-0.33,1.1-0.25,3.29-0.23c-0.32,0.03-0.57,0.09-0.99,0.23c-1.05,0.35-1.59,0.93-1.64,2.04c-0.23,5.3,0,13.74-0.21,19.03      c-0.03,0.55-0.06,1.18,0.01,1.76C52.22,60.97,52.87,61.78,53.79,61.87z"/><path fill="#010101" d="M26.61,62.79c-7.46,0-14.35-0.14-18.73-0.57C6.6,62.1,5.31,61.5,4.52,60.67c-0.99-1.04-0.99-2.6-0.91-3.97     c-0.01-4.03-0.09-8.65-0.18-13.55C3.22,31.42,2.99,18.13,3.61,7.34c0.01-0.25,0.23-0.44,0.48-0.43c0.25,0.01,0.45,0.23,0.43,0.48     C3.91,18.15,4.14,31.42,4.34,43.14c0.09,4.9,0.17,9.52,0.18,13.59c-0.07,1.26-0.08,2.54,0.66,3.31c0.64,0.68,1.71,1.16,2.78,1.27     c10.15,0.98,33.98,0.44,46.79,0.14c3.68-0.08,6.35-0.15,7.58-0.15c0.25,0,0.46,0.21,0.46,0.46s-0.21,0.46-0.46,0.46     c-1.22,0-3.88,0.06-7.56,0.15C47.45,62.54,36.53,62.79,26.61,62.79z"/><path fill="#010101" d="M17.06 62.71l-4.49-.16c-.5 0-1.04 0-1.53-.05-1.13-.11-2.02-.98-2.15-2.12-.07-.57-.04-1.18-.02-1.71l.01-.13c.1-2.58.1-5.2.1-7.74 0-2.67-.01-5.43.11-8.15.06-1.26.68-2.04 1.95-2.46.9-.29 1.18-.29 2.4-.27.39.01.89.02 1.54.02 1.53 0 3.07.17 3.97 1.33.68.88.71 2.06.73 2.92.06 2.49.01 5.04-.04 7.51-.05 2.48-.1 5.05-.04 7.54.02.77.04 1.72-.53 2.49 0 0 0 0 0 0C18.65 62.28 17.7 62.68 17.06 62.71zM12.73 40.82c-.61 0-.83.04-1.4.23-.91.3-1.28.76-1.32 1.63-.12 2.7-.12 5.45-.11 8.11 0 2.55.01 5.19-.1 7.78l-.01.13c-.02.5-.05 1.06.01 1.56.09.71.63 1.25 1.33 1.32.45.04.97.05 1.46.05l4.47.16c.39-.02 1.06-.33 1.27-.61.38-.51.36-1.26.35-1.92-.06-2.52-.01-5.09.04-7.58.05-2.46.1-5 .04-7.47-.02-.95-.08-1.79-.54-2.39-.66-.85-1.95-.97-3.25-.98-.66 0-1.16-.01-1.56-.02C13.14 40.82 12.92 40.82 12.73 40.82zM18.7 61.46L18.7 61.46 18.7 61.46zM25.57 62.79c-.4 0-.73-.01-1.03-.04-1.13-.09-2.02-.95-2.16-2.09-.07-.57-.04-1.17-.02-1.71l.01-.13c.1-2.58.1-8.34.1-13.91 0-5.93-.01-12.05.11-14.78.06-1.25.67-2.04 1.94-2.49.9-.31 1.18-.31 2.39-.32.39 0 .89 0 1.54-.01 1.54-.03 3.08.11 3.98 1.26.68.87.71 2.05.73 2.91.06 2.48.01 8.23-.04 13.78-.05 5.64-.1 11.48-.04 13.98.02.76.04 1.8-.53 2.57 0 0 0 0 0 0-.43.58-1.42.9-1.99.93l-4.48.02C25.9 62.79 25.73 62.79 25.57 62.79zM28.79 28.24c-.1 0-.21 0-.31 0-.66.01-1.16.01-1.56.01-1.19 0-1.34 0-2.09.26-.92.32-1.29.79-1.33 1.66-.12 2.7-.12 8.82-.11 14.74 0 5.84.01 11.35-.1 13.95L23.28 59c-.02.5-.05 1.06.01 1.55.09.7.63 1.23 1.32 1.29.39.03.85.04 1.46.03l4.46-.02c.41-.03 1.07-.28 1.28-.56.38-.53.36-1.39.35-2.01-.06-2.52-.01-8.36.04-14.01.05-5.55.1-11.28.04-13.75-.02-.95-.08-1.78-.53-2.37C31.12 28.38 29.98 28.24 28.79 28.24zM32.19 61.56L32.19 61.56 32.19 61.56zM39.56 62.66c-.52 0-1.05 0-1.54-.05-1.13-.11-2.02-.98-2.15-2.12-.07-.57-.04-1.18-.02-1.71l.01-.13c.1-2.57.1-10.3.1-17.78 0-7.98-.01-16.22.11-18.95.06-1.25.68-2.04 1.95-2.46.9-.29 1.19-.29 2.4-.27.39.01.89.02 1.54.02 1.53 0 3.08.17 3.97 1.33.68.89.71 2.06.73 2.92.06 2.48.01 10.2-.04 17.66-.05 7.6-.1 15.46-.04 17.97.02.76.04 1.8-.53 2.57 0 0 0 0 0 0-.43.58-1.43.87-2 .9l-4.47.1C39.58 62.66 39.57 62.66 39.56 62.66zM39.72 20.1c-.61 0-.83.04-1.4.23-.91.3-1.28.76-1.32 1.63-.12 2.7-.12 10.94-.11 18.9 0 7.83.01 15.23-.1 17.82l-.01.13c-.02.5-.05 1.06.01 1.56.09.71.63 1.25 1.33 1.32.45.04.97.05 1.46.05l4.45-.1c.42-.02 1.09-.26 1.29-.53.38-.52.36-1.37.35-2-.06-2.52-.01-10.39.04-18 .05-7.45.1-15.16.04-17.63-.02-.95-.08-1.79-.54-2.39-.66-.85-1.95-.97-3.25-.98-.66 0-1.16-.01-1.56-.02C40.12 20.11 39.9 20.1 39.72 20.1zM45.69 61.39L45.69 61.39 45.69 61.39zM52.99 62.38c-.52 0-1.05 0-1.53-.05-1.09-.11-1.95-1.02-2.09-2.23-.07-.57-.04-1.18-.02-1.71l.01-.13c.1-2.58.1-5.97.1-9.26 0-3.47-.01-7.06.11-9.78.06-1.26.68-2.04 1.95-2.46.9-.29 1.18-.29 2.4-.27.39.01.89.02 1.54.02 1.53 0 3.07.17 3.97 1.33.68.88.71 2.06.73 2.92.06 2.49.01 5.79-.04 8.98-.05 3.22-.1 6.55-.04 9.05.02.76.04 1.8-.53 2.57 0 0 0 0 0 0-.43.58-1.43.87-2 .9l-4.53.11C53.01 62.38 53 62.38 52.99 62.38zM53.21 37.41c-.61 0-.83.04-1.4.23-.91.3-1.28.76-1.32 1.63-.12 2.7-.12 6.28-.11 9.74 0 3.29.01 6.7-.1 9.3l-.01.13c-.02.5-.05 1.06.01 1.56.09.78.62 1.36 1.27 1.42.45.05.97.05 1.46.05l4.51-.11c.42-.02 1.09-.26 1.29-.53.38-.52.36-1.37.35-2-.06-2.52-.01-5.85.04-9.08.05-3.18.1-6.47.04-8.94-.02-.95-.08-1.79-.54-2.39-.66-.85-1.95-.97-3.25-.98-.66 0-1.16-.01-1.56-.02C53.62 37.42 53.39 37.41 53.21 37.41zM59.17 61.1L59.17 61.1 59.17 61.1z"/><g><path fill="#010101" d="M43.63,52.01c-0.25,0-0.46-0.21-0.46-0.46V39.42c0-0.25,0.21-0.46,0.46-0.46c0.25,0,0.46,0.21,0.46,0.46    v12.13C44.09,51.8,43.88,52.01,43.63,52.01z"/></g><g><path fill="#010101" d="M43.63,37.65c-0.25,0-0.46-0.21-0.46-0.46v-1.44c0-0.25,0.21-0.46,0.46-0.46c0.25,0,0.46,0.21,0.46,0.46v1.44    C44.09,37.45,43.88,37.65,43.63,37.65z"/></g><g><path fill="#155647" d="M41,3.7c5.51-0.56,8.81,5.34,5.09,10.42c-2.89,3.96-9.62,2.65-10.91-2.09C33.81,6.9,36.65,4.15,41,3.7z"/><path fill="#fff" d="M42.33,16.39c-2.96,0.47-6.28-1.17-7.14-4.35C33.8,6.9,36.65,4.15,41,3.7c0.6-0.06,1.18-0.04,1.72,0.04     c-4.17,0.54-6.84,3.29-5.49,8.3C37.9,14.5,40.03,16.03,42.33,16.39z"/><path fill="#010101" d="M41.32,16.93c-0.43,0-0.88-0.04-1.32-0.12c-2.6-0.48-4.61-2.26-5.25-4.65c-0.65-2.41-0.43-4.51,0.64-6.07     c1.1-1.6,3.03-2.59,5.57-2.84l0,0c2.69-0.27,5.05,0.88,6.32,3.09c1.38,2.4,1.07,5.49-0.81,8.06     C45.29,16.02,43.39,16.93,41.32,16.93z M41.05,4.16L41.05,4.16c-2.26,0.23-3.96,1.08-4.91,2.45c-0.93,1.35-1.1,3.13-0.51,5.31     c0.55,2.04,2.29,3.57,4.54,3.98c2.21,0.41,4.34-0.37,5.56-2.05c1.66-2.28,1.95-4.98,0.76-7.07C45.4,4.91,43.37,3.92,41.05,4.16z"/><path fill="#010101" d="M38.35 12.62c-.08 0-.16-.02-.23-.06-.22-.13-.29-.41-.17-.63.59-1.03 1.64-1.79 2.8-2.03 1.16-.25 2.43.02 3.39.71.21.15.25.43.1.64-.15.21-.43.25-.64.1-.76-.54-1.75-.75-2.66-.56-.91.19-1.73.79-2.2 1.6C38.67 12.54 38.51 12.62 38.35 12.62zM39.18 9.27C39.18 9.27 39.17 9.27 39.18 9.27c-.26-.01-.46-.21-.46-.47l.03-1.46c.01-.25.22-.44.47-.45.25.01.45.21.45.47l-.03 1.46C39.63 9.08 39.43 9.27 39.18 9.27zM42.48 9.18C42.48 9.18 42.48 9.18 42.48 9.18c-.26-.01-.46-.21-.46-.47l.03-1.46c.01-.25.21-.44.47-.45.25.01.45.21.45.47l-.03 1.46C42.94 8.98 42.73 9.18 42.48 9.18z"/></g><g><path fill="#155647" d="M14.02,24.64c5.51-0.56,8.81,5.34,5.09,10.42c-2.89,3.96-9.62,2.65-10.91-2.09     C6.82,27.84,9.66,25.09,14.02,24.64z"/><path fill="#fff" d="M15.35,37.33c-2.96,0.47-6.28-1.17-7.14-4.35c-1.39-5.14,1.45-7.89,5.81-8.34c0.6-0.06,1.18-0.04,1.72,0.04     c-4.17,0.54-6.84,3.29-5.49,8.3C10.92,35.44,13.04,36.97,15.35,37.33z"/><path fill="#010101" d="M14.34,37.87c-0.43,0-0.88-0.04-1.32-0.12c-2.6-0.48-4.61-2.26-5.25-4.65c-0.65-2.41-0.43-4.51,0.64-6.07     c1.1-1.6,3.03-2.59,5.57-2.84l0,0c2.69-0.27,5.05,0.88,6.32,3.09c1.38,2.4,1.07,5.49-0.81,8.06     C18.3,36.96,16.41,37.87,14.34,37.87z M14.07,25.1L14.07,25.1c-2.26,0.23-3.96,1.08-4.91,2.45c-0.93,1.35-1.1,3.13-0.51,5.31     c0.55,2.04,2.29,3.57,4.54,3.98c2.21,0.41,4.34-0.37,5.56-2.05c1.66-2.28,1.95-4.98,0.76-7.07     C18.42,25.85,16.39,24.86,14.07,25.1z"/><path fill="#010101" d="M11.37 33.56c-.08 0-.16-.02-.23-.06-.22-.13-.29-.41-.17-.63.59-1.03 1.64-1.79 2.8-2.03 1.16-.25 2.43.02 3.39.71.21.15.25.43.1.64-.15.21-.43.25-.64.1-.76-.54-1.75-.75-2.66-.56-.91.19-1.73.79-2.2 1.6C11.68 33.48 11.53 33.56 11.37 33.56zM12.2 30.21C12.19 30.21 12.19 30.21 12.2 30.21c-.26-.01-.46-.21-.46-.47l.03-1.46c.01-.25.22-.45.47-.45.25.01.45.21.45.47l-.03 1.46C12.65 30.01 12.45 30.21 12.2 30.21zM15.5 30.12C15.5 30.12 15.49 30.12 15.5 30.12c-.26-.01-.46-.21-.46-.47l.03-1.46c.01-.25.21-.45.47-.45.25.01.45.21.45.47l-.03 1.46C15.95 29.92 15.75 30.12 15.5 30.12z"/></g><g><path fill="#fff" d="M55.53,20.22c5.51-0.56,8.81,5.34,5.09,10.42C57.74,34.6,51,33.3,49.72,28.56     C48.33,23.42,51.17,20.66,55.53,20.22z"/><path fill="#CEFFAE" d="M56.86,32.91c-2.96,0.47-6.28-1.17-7.14-4.35c-1.39-5.14,1.45-7.89,5.81-8.34c0.6-0.06,1.18-0.04,1.72,0.04     c-4.17,0.54-6.84,3.29-5.49,8.3C52.43,31.01,54.56,32.55,56.86,32.91z"/><path fill="#010101" d="M55.85,33.45c-0.43,0-0.88-0.04-1.32-0.12c-2.6-0.48-4.61-2.26-5.25-4.65c-0.65-2.41-0.43-4.51,0.64-6.07     c1.1-1.6,3.03-2.58,5.57-2.84c2.69-0.27,5.05,0.88,6.32,3.09c1.38,2.4,1.07,5.49-0.81,8.06C59.81,32.53,57.92,33.45,55.85,33.45z      M55.58,20.68c-2.26,0.23-3.96,1.08-4.9,2.45c-0.93,1.35-1.1,3.13-0.51,5.31c0.55,2.04,2.29,3.57,4.54,3.98     c2.21,0.41,4.34-0.37,5.56-2.05c1.66-2.28,1.95-4.98,0.75-7.07C59.93,21.43,57.9,20.44,55.58,20.68L55.58,20.68z M55.53,20.22     L55.53,20.22L55.53,20.22z"/><path fill="#010101" d="M52.88 29.14c-.08 0-.16-.02-.23-.06-.22-.13-.29-.41-.17-.63.59-1.03 1.64-1.79 2.8-2.03 1.16-.25 2.43.02 3.39.71.21.15.25.43.1.64-.15.21-.43.25-.64.1-.76-.54-1.75-.75-2.66-.56s-1.73.79-2.2 1.6C53.19 29.06 53.04 29.14 52.88 29.14zM53.71 25.79C53.7 25.79 53.7 25.79 53.71 25.79c-.26-.01-.46-.21-.46-.47l.03-1.46c.01-.25.22-.46.47-.45.25.01.45.21.45.47l-.03 1.46C54.16 25.59 53.96 25.79 53.71 25.79zM57.01 25.7C57.01 25.7 57 25.7 57.01 25.7c-.26-.01-.46-.21-.46-.47l.03-1.46c.01-.25.23-.45.47-.45.25.01.45.21.45.47l-.03 1.46C57.46 25.5 57.26 25.7 57.01 25.7z"/></g><g><path fill="#CEFFAE" d="M27.77,24.78c-8.56,0-8.56-13.09,0-13.09C36.32,11.69,36.32,24.78,27.77,24.78z"/><path fill="#fff" d="M28.79,24.71c-0.32,0.04-0.67,0.07-1.02,0.07c-8.56,0-8.56-13.09,0-13.09c0.36,0,0.7,0.02,1.02,0.07     C21.59,12.71,21.59,23.76,28.79,24.71z"/><path fill="#010101" d="M27.76,25.24c-4.51,0-6.88-3.52-6.88-7c0-1.83,0.61-3.53,1.72-4.8c1.26-1.44,3.04-2.2,5.16-2.2     c4.52,0,6.88,3.52,6.88,7c0,1.83-0.61,3.53-1.72,4.8C31.67,24.48,29.88,25.24,27.76,25.24z M27.76,12.15     c-1.85,0-3.39,0.65-4.47,1.89c-0.96,1.1-1.49,2.59-1.49,4.2c0,2.93,1.86,6.09,5.96,6.09c1.85,0,3.39-0.65,4.47-1.89     c0.96-1.1,1.49-2.59,1.49-4.2C33.73,15.3,31.86,12.15,27.76,12.15z"/><path fill="#010101" d="M28.01 20.83c-.02 0-.05 0-.07 0-1.41-.02-2.65-.73-3.25-1.83-.12-.22-.04-.5.19-.62.22-.12.5-.04.62.19.44.82 1.38 1.33 2.46 1.35 1.11.01 2.08-.49 2.59-1.36.13-.22.41-.29.63-.17.22.13.29.41.17.63C30.67 20.15 29.43 20.83 28.01 20.83zM29.49 17.77c-.25 0-.46-.2-.46-.46l0-1.4c0-.25.2-.46.46-.46 0 0 0 0 0 0 .25 0 .46.2.46.46l0 1.4C29.95 17.57 29.75 17.77 29.49 17.77 29.49 17.77 29.49 17.77 29.49 17.77zM26.38 17.77c-.25 0-.46-.2-.46-.46l0-1.4c0-.25.2-.46.46-.46 0 0 0 0 0 0 .25 0 .46.2.46.46l0 1.4C26.84 17.57 26.64 17.77 26.38 17.77 26.38 17.77 26.38 17.77 26.38 17.77z"/></g></svg>